<?xml version="1.0" encoding="iso-8859-1"?>
<!-- Generator: Adobe Illustrator 19.0.0, SVG Export Plug-In . SVG Version: 6.00 Build 0)  -->
<svg version="1.1" id="Layer_1" xmlns="http://www.w3.org/2000/svg" xmlns:xlink="http://www.w3.org/1999/xlink" x="0px" y="0px"
	 viewBox="0 0 512.001 512.001" style="enable-background:new 0 0 512.001 512.001;" xml:space="preserve">
<g>
	<g>
		<path d="M507.002,377.485l-19.097-11.434c-1.257-0.753-2.011-2.124-1.972-3.588c0.038-1.464,0.863-2.794,2.158-3.479l19.67-10.418
			c2.943-1.56,4.607-4.784,4.173-8.086c-0.435-3.302-2.877-5.987-6.123-6.731l-21.696-4.973c-1.427-0.327-2.569-1.398-2.984-2.803
			c-0.416-1.404-0.043-2.923,0.976-3.976l15.487-15.987c2.318-2.393,2.903-5.974,1.469-8.98c-1.434-3.007-4.586-4.805-7.904-4.51
			l-22.171,1.975c-1.459,0.13-2.874-0.536-3.705-1.743c-0.829-1.207-0.945-2.768-0.3-4.084l9.789-19.99
			c1.465-2.991,0.916-6.578-1.377-8.995c-2.293-2.416-5.847-3.152-8.91-1.846l-20.476,8.73c-1.347,0.575-2.9,0.378-4.062-0.514
			c-1.162-0.891-1.753-2.341-1.547-3.79l3.132-22.037c0.469-3.298-1.162-6.539-4.089-8.129s-6.535-1.192-9.045,0.997l-16.775,14.63
			c-1.104,0.963-2.641,1.255-4.022,0.766c-1.38-0.488-2.391-1.684-2.643-3.127l-3.83-21.926c-0.574-3.281-3.126-5.86-6.401-6.467
			c-3.276-0.607-6.583,0.886-8.294,3.744l-11.434,19.097c-0.753,1.257-2.124,2.011-3.588,1.972c-1.464-0.039-2.794-0.863-3.48-2.158
			l-10.418-19.67c-1.56-2.943-4.784-4.607-8.086-4.173c-3.302,0.435-5.987,2.877-6.732,6.123l-4.973,21.696
			c-0.327,1.428-1.398,2.569-2.803,2.984c-1.404,0.416-2.924,0.043-3.976-0.976l-15.987-15.487c-2.392-2.318-5.973-2.904-8.98-1.469
			c-3.007,1.434-4.805,4.585-4.51,7.904l1.975,22.171c0.13,1.459-0.537,2.874-1.744,3.705c-1.207,0.83-2.768,0.945-4.083,0.3
			l-19.99-9.789c-2.991-1.465-6.579-0.916-8.995,1.377c-1.534,1.455-2.384,3.419-2.471,5.442l-5.603-12.493
			c-0.657-1.466-0.474-3.172,0.48-4.465c0.955-1.293,2.531-1.971,4.126-1.774l24.233,2.987c3.627,0.447,7.148-1.408,8.832-4.651
			c1.684-3.243,1.174-7.192-1.278-9.901l-16.387-18.1c-1.078-1.19-1.432-2.871-0.923-4.395c0.508-1.524,1.798-2.657,3.376-2.962
			l23.97-4.648c3.587-0.696,6.364-3.548,6.963-7.153c0.599-3.605-1.106-7.202-4.275-9.02l-21.178-12.151
			c-1.394-0.799-2.249-2.289-2.236-3.895c0.012-1.607,0.889-3.082,2.295-3.86l21.36-11.828c3.197-1.77,4.956-5.341,4.412-8.955
			c-0.545-3.613-3.277-6.507-6.854-7.257l-23.897-5.012c-1.573-0.329-2.846-1.482-3.33-3.013c-0.485-1.532-0.107-3.206,0.989-4.381
			l16.66-17.85c2.493-2.671,3.063-6.61,1.429-9.879s-5.128-5.176-8.761-4.784l-24.276,2.618c-1.597,0.172-3.163-0.529-4.098-1.836
			c-0.935-1.307-1.093-3.016-0.412-4.472L272.1,64.507c1.546-3.311,0.87-7.234-1.694-9.837s-6.476-3.338-9.81-1.843l-22.279,9.992
			c-1.466,0.658-3.172,0.475-4.465-0.48c-1.293-0.954-1.971-2.531-1.774-4.125l2.987-24.234c0.447-3.627-1.407-7.148-4.651-8.832
			s-7.191-1.174-9.899,1.278l-18.1,16.387c-1.192,1.078-2.871,1.431-4.395,0.923c-1.524-0.508-2.657-1.799-2.962-3.376
			l-4.648-23.969c-0.696-3.588-3.548-6.365-7.153-6.963c-3.605-0.598-7.202,1.106-9.02,4.275l-12.151,21.178
			c-0.799,1.394-2.289,2.247-3.895,2.236c-1.606-0.012-3.082-0.889-3.86-2.295l-11.828-21.36c-1.77-3.197-5.341-4.956-8.955-4.412
			c-3.614,0.545-6.507,3.277-7.257,6.854l-5.012,23.897c-0.33,1.573-1.482,2.846-3.013,3.33c-1.532,0.485-3.206,0.107-4.381-0.99
			L96.034,25.479c-2.671-2.493-6.611-3.063-9.879-1.429c-3.268,1.634-5.176,5.128-4.784,8.76l2.618,24.276
			c0.172,1.598-0.53,3.165-1.836,4.098c-1.307,0.935-3.017,1.093-4.472,0.412L55.555,51.269c-3.311-1.546-7.234-0.87-9.837,1.694
			s-3.338,6.477-1.843,9.81l9.992,22.279c0.657,1.466,0.474,3.172-0.48,4.465s-2.531,1.971-4.126,1.774l-24.234-2.987
			c-3.627-0.447-7.148,1.408-8.832,4.651s-1.174,7.191,1.278,9.899l16.387,18.1c1.078,1.192,1.431,2.871,0.923,4.395
			c-0.508,1.525-1.799,2.657-3.376,2.962l-23.97,4.648c-3.587,0.696-6.364,3.548-6.963,7.153s1.106,7.202,4.275,9.02l21.178,12.151
			c1.394,0.799,2.249,2.289,2.236,3.895c-0.012,1.606-0.889,3.081-2.295,3.86L4.51,180.869c-3.197,1.771-4.956,5.341-4.412,8.955
			c0.545,3.614,3.277,6.507,6.854,7.257l23.897,5.012c1.573,0.33,2.846,1.482,3.33,3.013c0.485,1.532,0.107,3.206-0.989,4.381
			l-16.661,17.849c-2.493,2.671-3.063,6.611-1.428,9.879c1.634,3.268,5.128,5.176,8.761,4.785l24.276-2.618
			c1.597-0.172,3.163,0.53,4.098,1.836c0.935,1.307,1.093,3.016,0.412,4.472L42.32,267.815c-1.546,3.311-0.87,7.234,1.694,9.837
			c2.564,2.603,6.476,3.338,9.81,1.843l22.279-9.992c1.466-0.657,3.172-0.474,4.465,0.48c1.293,0.954,1.971,2.531,1.774,4.126
			l-2.987,24.233c-0.447,3.627,1.407,7.149,4.651,8.832s7.191,1.174,9.899-1.279l18.1-16.386c1.192-1.078,2.871-1.432,4.395-0.924
			c1.524,0.508,2.657,1.799,2.962,3.376l4.648,23.97c0.696,3.587,3.548,6.364,7.153,6.963c3.605,0.599,7.202-1.106,9.02-4.276
			l12.151-21.178c0.799-1.394,2.289-2.249,3.895-2.236c1.606,0.012,3.082,0.889,3.86,2.294l11.828,21.36
			c1.77,3.197,5.341,4.956,8.955,4.412c3.614-0.545,6.507-3.277,7.257-6.854l5.012-23.897c0.33-1.573,1.482-2.846,3.013-3.33
			c1.532-0.486,3.206-0.107,4.381,0.989l17.85,16.66c2.671,2.493,6.611,3.062,9.879,1.428c3.268-1.634,5.176-5.128,4.784-8.76
			l-2.618-24.276c-0.172-1.597,0.53-3.163,1.836-4.098s3.017-1.092,4.472-0.412l22.124,10.328c3.311,1.546,7.234,0.87,9.837-1.694
			c1.547-1.524,2.418-3.527,2.568-5.6l4.241,9.947c0.575,1.347,0.378,2.9-0.514,4.062s-2.341,1.753-3.79,1.547l-22.037-3.132
			c-3.298-0.469-6.539,1.162-8.129,4.089c-1.589,2.928-1.192,6.535,0.998,9.046l14.629,16.775c0.963,1.104,1.256,2.641,0.767,4.022
			c-0.489,1.38-1.684,2.391-3.127,2.642l-21.926,3.83c-3.281,0.574-5.86,3.127-6.468,6.401c-0.607,3.276,0.886,6.583,3.744,8.294
			l19.097,11.434c1.257,0.753,2.011,2.123,1.972,3.588c-0.039,1.465-0.863,2.794-2.157,3.48l-19.67,10.418
			c-2.943,1.56-4.607,4.784-4.173,8.086c0.435,3.303,2.877,5.987,6.124,6.732l21.696,4.973c1.427,0.327,2.568,1.398,2.984,2.802
			c0.416,1.405,0.043,2.924-0.976,3.976l-15.487,15.987c-2.318,2.392-2.903,5.975-1.469,8.98c1.434,3.007,4.586,4.805,7.904,4.51
			l22.171-1.974c1.459-0.13,2.874,0.536,3.705,1.743c0.83,1.207,0.945,2.768,0.3,4.083l-9.789,19.99
			c-1.465,2.991-0.916,6.579,1.377,8.995c2.293,2.417,5.847,3.152,8.91,1.846l20.476-8.73c1.347-0.575,2.9-0.378,4.062,0.514
			c1.162,0.891,1.753,2.34,1.547,3.79l-3.132,22.037c-0.469,3.298,1.162,6.539,4.089,8.129c2.928,1.589,6.535,1.192,9.045-0.997
			l16.775-14.63c1.104-0.963,2.641-1.256,4.022-0.767s2.391,1.684,2.643,3.127l3.83,21.927c0.574,3.281,3.126,5.86,6.401,6.467
			c3.276,0.607,6.583-0.886,8.294-3.744l11.434-19.097c0.753-1.256,2.124-2.011,3.588-1.972c1.464,0.038,2.794,0.863,3.48,2.156
			l10.418,19.67c1.56,2.943,4.784,4.608,8.086,4.173c3.302-0.435,5.987-2.877,6.732-6.123l4.973-21.696
			c0.327-1.427,1.398-2.568,2.803-2.984c1.404-0.417,2.924-0.043,3.976,0.976l15.987,15.487c2.392,2.318,5.973,2.903,8.98,1.469
			c3.007-1.434,4.805-4.586,4.51-7.904l-1.975-22.171c-0.13-1.459,0.537-2.874,1.744-3.705c1.207-0.829,2.768-0.945,4.083-0.3
			l19.99,9.789c2.991,1.465,6.579,0.916,8.995-1.377c2.417-2.293,3.152-5.847,1.846-8.911l-8.729-20.475
			c-0.575-1.347-0.378-2.9,0.514-4.062c0.891-1.162,2.341-1.754,3.79-1.547l22.037,3.132c3.298,0.468,6.539-1.162,8.129-4.089
			c1.589-2.928,1.192-6.535-0.998-9.045l-14.629-16.775c-0.963-1.104-1.256-2.641-0.767-4.022c0.489-1.381,1.684-2.391,3.127-2.643
			l21.926-3.83c3.281-0.574,5.86-3.127,6.468-6.401C511.352,382.503,509.859,379.195,507.002,377.485z M157.21,242.115
			c-41.948,0-75.955-34.006-75.955-75.955c0-41.95,34.006-75.955,75.955-75.955s75.955,34.006,75.955,75.955
			C233.165,208.109,199.158,242.115,157.21,242.115z M367.042,428.613c-38.235-0.71-68.654-32.282-67.943-70.517
			c0.711-38.235,32.282-68.654,70.517-67.943c38.235,0.711,68.654,32.282,67.943,70.517
			C436.849,398.905,405.277,429.324,367.042,428.613z"/>
	</g>
</g>
<g>
</g>
<g>
</g>
<g>
</g>
<g>
</g>
<g>
</g>
<g>
</g>
<g>
</g>
<g>
</g>
<g>
</g>
<g>
</g>
<g>
</g>
<g>
</g>
<g>
</g>
<g>
</g>
<g>
</g>
</svg>
