<svg id="svg" version="1.1" xmlns="http://www.w3.org/2000/svg" width="400" height="333.9622641509434" viewBox="0, 0, 400,333.9622641509434"><g id="svgg"><path id="path0" d="M238.103 138.094 C 237.809 138.259,237.117 138.294,236.565 138.173 C 235.958 138.040,235.370 138.112,235.076 138.355 C 234.738 138.636,233.930 138.688,232.416 138.526 C 230.805 138.353,230.242 138.398,230.242 138.699 C 230.242 138.988,229.809 139.046,228.739 138.899 C 227.745 138.763,227.235 138.817,227.235 139.060 C 227.235 139.271,226.880 139.358,226.399 139.267 C 225.940 139.179,225.564 139.205,225.564 139.326 C 225.564 139.446,224.737 139.825,223.726 140.169 C 222.715 140.512,221.888 140.920,221.888 141.073 C 221.888 141.227,221.712 141.353,221.496 141.353 C 221.008 141.353,217.751 144.716,217.601 145.375 C 217.540 145.641,217.360 145.939,217.202 146.037 C 216.644 146.381,216.135 149.231,216.197 151.665 C 216.232 153.017,216.128 154.042,215.966 153.942 C 215.805 153.842,215.673 154.305,215.673 154.970 C 215.673 155.635,215.491 156.240,215.269 156.314 C 215.048 156.388,214.951 156.586,215.055 156.754 C 215.159 156.922,215.085 157.059,214.890 157.059 C 214.696 157.059,214.536 157.220,214.536 157.417 C 214.536 158.138,212.323 160.973,209.706 163.604 C 205.775 167.556,203.121 171.129,202.655 173.099 C 202.633 173.191,202.502 173.523,202.363 173.837 C 202.010 174.638,202.453 179.506,202.922 179.976 C 203.036 180.089,203.048 180.393,202.949 180.651 C 202.850 180.909,202.951 181.119,203.175 181.119 C 203.398 181.119,203.494 181.345,203.388 181.621 C 203.282 181.896,203.351 182.122,203.542 182.122 C 203.736 182.122,203.795 182.416,203.676 182.790 C 203.545 183.202,203.616 183.459,203.859 183.459 C 204.091 183.459,204.182 183.737,204.080 184.127 C 203.975 184.530,204.040 184.713,204.244 184.587 C 204.464 184.451,204.499 184.759,204.344 185.464 C 204.177 186.223,204.217 186.481,204.476 186.321 C 204.730 186.164,204.845 186.724,204.845 188.126 L 204.845 190.159 205.931 189.587 C 206.689 189.188,208.179 188.958,210.860 188.827 L 214.703 188.638 217.193 187.014 C 220.205 185.050,222.501 183.147,223.516 181.774 L 224.270 180.755 223.197 179.533 C 220.154 176.068,218.848 170.250,220.064 165.581 C 220.713 163.089,220.526 163.166,222.445 164.593 C 228.910 169.396,240.745 170.129,248.857 166.227 C 251.739 164.840,251.725 164.841,252.054 166.005 C 253.328 170.511,251.408 176.970,247.645 180.840 L 245.714 182.825 246.712 183.341 C 248.916 184.481,252.062 185.464,253.506 185.464 C 255.469 185.464,263.519 187.066,264.829 187.717 C 265.380 187.992,266.305 188.570,266.883 189.003 L 267.935 189.790 268.143 188.964 C 268.257 188.509,268.507 188.137,268.698 188.137 C 268.889 188.137,268.959 187.997,268.853 187.826 C 268.661 187.516,269.626 185.124,270.081 184.783 C 271.819 183.477,271.387 176.936,269.415 174.687 C 269.133 174.365,268.984 174.102,269.085 174.102 C 269.185 174.102,268.606 173.388,267.798 172.515 C 266.989 171.642,265.915 170.326,265.411 169.591 C 264.907 168.855,264.293 168.041,264.046 167.781 C 263.558 167.267,261.285 162.740,261.515 162.740 C 261.592 162.740,261.360 162.190,261.000 161.517 C 260.639 160.844,260.422 160.168,260.518 160.013 C 260.613 159.859,260.559 159.733,260.398 159.733 C 260.237 159.733,259.834 158.868,259.501 157.811 C 259.169 156.754,258.784 155.589,258.645 155.221 C 258.506 154.854,258.387 154.419,258.381 154.256 C 258.375 154.093,258.192 153.849,257.974 153.715 C 257.757 153.581,257.556 153.075,257.528 152.592 C 257.500 152.109,257.392 151.713,257.287 151.713 C 257.183 151.713,256.839 150.892,256.523 149.888 C 256.206 148.885,255.736 147.655,255.476 147.155 C 255.217 146.656,255.081 146.123,255.175 145.972 C 255.268 145.821,255.215 145.698,255.056 145.698 C 254.898 145.698,254.498 144.945,254.168 144.026 C 253.435 141.990,251.237 139.599,249.541 138.993 C 248.851 138.747,248.287 138.415,248.287 138.256 C 248.287 138.097,247.999 138.058,247.647 138.170 C 247.295 138.282,246.919 138.231,246.813 138.058 C 246.567 137.661,238.821 137.693,238.103 138.094 M261.906 218.062 C 261.803 219.523,261.487 221.385,261.203 222.200 L 260.688 223.681 262.161 222.200 L 263.635 220.718 262.864 218.062 L 262.093 215.406 261.906 218.062 M207.225 220.720 C 206.708 222.583,206.738 222.732,207.729 223.184 C 208.906 223.720,208.920 223.667,208.211 221.375 L 207.595 219.386 207.225 220.720 M204.678 225.227 C 202.906 225.625,201.524 226.551,200.583 227.971 L 199.666 229.357 199.571 241.997 C 199.519 248.949,199.437 254.637,199.389 254.637 C 199.342 254.637,197.473 253.734,195.237 252.632 C 190.432 250.262,190.663 250.295,189.847 251.880 L 189.202 253.133 188.102 251.905 C 187.497 251.230,186.686 250.112,186.299 249.421 C 185.766 248.469,185.235 248.045,184.109 247.674 C 183.292 247.405,182.576 247.065,182.518 246.919 C 182.460 246.773,182.197 246.737,181.933 246.838 C 181.669 246.939,181.454 246.846,181.454 246.630 C 181.454 246.389,181.195 246.320,180.785 246.449 C 180.411 246.568,180.117 246.510,180.117 246.315 C 180.117 246.125,179.891 246.056,179.616 246.162 C 179.340 246.267,179.114 246.177,179.114 245.961 C 179.114 245.727,178.857 245.651,178.474 245.772 C 178.122 245.884,177.736 245.816,177.616 245.622 C 177.496 245.428,177.251 245.360,177.072 245.470 C 176.893 245.581,176.533 245.495,176.274 245.279 C 175.804 244.890,170.433 244.648,169.402 244.970 C 168.563 245.233,167.296 246.358,166.423 247.619 C 165.977 248.262,165.455 248.899,165.263 249.034 C 165.070 249.169,165.048 249.282,165.215 249.285 C 165.381 249.288,165.279 249.553,164.989 249.875 C 164.365 250.566,162.407 254.619,162.406 255.221 C 162.406 255.451,162.260 255.639,162.082 255.639 C 161.904 255.639,161.839 255.849,161.938 256.107 C 162.037 256.364,161.957 256.673,161.760 256.795 C 161.215 257.131,161.314 262.073,161.888 263.179 C 162.154 263.693,162.295 264.236,162.202 264.387 C 162.109 264.538,162.201 264.662,162.406 264.662 C 162.612 264.662,162.695 264.799,162.591 264.967 C 162.487 265.135,162.516 265.323,162.655 265.385 C 162.794 265.447,163.344 266.141,163.879 266.927 C 164.413 267.714,165.616 268.912,166.552 269.590 C 167.488 270.267,168.329 270.908,168.421 271.012 C 168.513 271.117,169.942 271.874,171.596 272.694 C 173.250 273.514,174.714 274.336,174.849 274.520 C 174.984 274.703,175.096 274.724,175.099 274.565 C 175.102 274.406,175.443 274.496,175.856 274.765 C 176.270 275.034,177.172 275.439,177.861 275.664 C 178.551 275.890,179.114 276.223,179.114 276.403 C 179.114 276.584,179.257 276.643,179.432 276.535 C 179.729 276.351,181.101 276.882,184.294 278.414 L 185.631 279.056 173.683 278.906 C 167.112 278.824,161.805 278.870,161.891 279.008 C 161.976 279.146,157.277 279.367,151.449 279.499 C 145.621 279.630,139.424 279.811,137.678 279.902 C 135.931 279.992,132.607 280.096,130.291 280.133 L 126.079 280.201 127.098 279.449 C 127.658 279.035,128.200 278.694,128.302 278.692 C 128.404 278.689,129.165 278.089,129.992 277.360 C 131.421 276.100,132.278 275.632,131.830 276.358 C 131.716 276.541,131.712 276.692,131.821 276.692 C 131.929 276.692,132.126 276.410,132.258 276.067 C 132.390 275.723,133.586 274.283,134.916 272.867 C 136.247 271.451,137.595 269.853,137.912 269.315 C 138.230 268.777,138.608 268.338,138.752 268.338 C 138.896 268.338,139.014 268.124,139.014 267.864 C 139.014 267.604,139.135 267.341,139.283 267.279 C 139.598 267.148,142.690 260.845,142.690 260.333 C 142.690 260.141,142.826 259.983,142.993 259.983 C 143.160 259.983,143.217 259.683,143.121 259.315 C 143.025 258.947,143.077 258.646,143.236 258.646 C 143.395 258.646,143.566 258.082,143.615 257.393 C 143.664 256.704,143.843 256.093,144.014 256.035 C 144.184 255.977,144.243 255.721,144.145 255.466 C 144.048 255.211,144.093 254.808,144.246 254.569 C 144.398 254.331,144.562 253.835,144.609 253.467 C 144.656 253.099,144.782 252.197,144.888 251.462 C 144.995 250.727,145.158 247.511,145.251 244.317 L 145.420 238.508 144.640 238.690 C 144.211 238.790,143.532 238.949,143.133 239.044 C 142.733 239.139,142.014 239.474,141.535 239.787 C 141.056 240.101,140.578 240.271,140.472 240.166 C 140.366 240.060,140.108 240.115,139.898 240.287 C 139.687 240.460,138.463 241.143,137.176 241.804 C 134.141 243.366,128.715 247.014,127.381 248.390 L 126.335 249.469 126.726 253.383 C 127.540 261.519,125.484 269.733,120.589 277.913 L 118.958 280.638 117.258 280.753 C 115.067 280.902,115.194 282.987,116.130 262.287 C 116.583 252.290,117.090 241.028,117.259 237.260 C 117.427 233.492,117.504 230.347,117.429 230.270 C 117.003 229.833,116.843 231.801,116.277 244.502 C 115.616 259.308,115.036 271.131,114.673 277.193 L 114.453 280.869 109.881 281.166 L 105.308 281.463 102.529 279.695 C 90.810 272.237,85.089 262.531,83.828 247.968 C 83.501 244.200,83.703 237.691,84.111 238.828 C 84.189 239.048,84.470 239.144,84.733 239.043 C 84.997 238.942,85.213 239.034,85.213 239.249 C 85.213 239.463,85.370 239.541,85.562 239.423 C 85.754 239.304,86.242 239.421,86.648 239.683 C 87.053 239.945,88.099 240.430,88.972 240.760 C 89.845 241.090,90.560 241.499,90.560 241.669 C 90.560 241.839,90.710 241.885,90.894 241.771 C 91.078 241.658,91.228 241.724,91.228 241.918 C 91.228 242.113,91.518 242.272,91.873 242.272 C 92.227 242.272,92.718 242.460,92.964 242.690 C 93.209 242.920,93.972 243.395,94.658 243.745 C 95.345 244.096,95.906 244.509,95.906 244.664 C 95.906 244.819,96.056 244.946,96.239 244.946 C 96.814 244.946,100.567 247.765,100.576 248.204 C 100.581 248.434,100.769 248.622,100.994 248.622 C 101.218 248.622,102.346 249.557,103.500 250.700 C 104.653 251.844,105.597 252.585,105.597 252.346 C 105.597 252.108,104.475 250.849,103.103 249.548 C 101.731 248.247,100.686 247.057,100.781 246.904 C 100.876 246.750,100.729 246.710,100.455 246.815 C 100.162 246.928,99.778 246.720,99.522 246.310 C 99.283 245.927,98.963 245.614,98.811 245.614 C 98.482 245.614,96.121 243.884,95.962 243.525 C 95.901 243.388,95.575 243.275,95.238 243.275 C 94.901 243.275,94.575 243.142,94.514 242.979 C 94.382 242.629,88.502 239.753,88.137 239.860 C 87.999 239.900,87.886 239.774,87.886 239.579 C 87.886 239.385,87.746 239.312,87.575 239.418 C 87.404 239.523,87.183 239.478,87.083 239.316 C 86.983 239.155,86.221 238.832,85.389 238.599 C 84.557 238.366,83.872 238.007,83.866 237.801 C 83.860 237.595,83.654 237.692,83.408 238.016 C 82.778 238.846,82.968 248.794,83.691 252.799 C 85.872 264.887,91.280 273.105,101.504 279.866 C 104.457 281.819,104.461 281.851,101.754 281.574 C 100.560 281.452,99.582 281.479,99.582 281.634 C 99.582 281.790,96.988 282.103,93.818 282.330 C 90.647 282.557,87.377 282.812,86.550 282.896 C 85.723 282.980,84.219 283.095,83.208 283.151 C 82.197 283.208,81.102 283.374,80.775 283.521 C 80.448 283.668,79.712 283.695,79.140 283.581 C 78.542 283.461,77.905 283.534,77.642 283.753 C 77.359 283.988,76.611 284.055,75.685 283.928 C 74.678 283.790,74.185 283.845,74.185 284.096 C 74.185 284.349,73.643 284.406,72.515 284.273 C 71.411 284.142,70.844 284.199,70.844 284.439 C 70.844 284.678,70.328 284.732,69.340 284.597 C 68.513 284.483,67.836 284.517,67.836 284.671 C 67.836 284.826,67.047 285.046,66.082 285.160 C 65.117 285.274,63.876 285.454,63.325 285.560 C 61.709 285.870,60.051 286.087,59.064 286.117 C 58.559 286.132,58.145 286.291,58.145 286.470 C 58.145 286.648,57.769 286.723,57.310 286.635 C 56.850 286.547,56.475 286.622,56.475 286.801 C 56.475 286.980,56.023 287.061,55.472 286.980 C 54.921 286.899,54.470 286.974,54.470 287.148 C 54.470 287.321,54.169 287.384,53.801 287.288 C 53.434 287.192,53.133 287.267,53.133 287.455 C 53.133 287.643,52.757 287.725,52.297 287.638 C 51.838 287.550,51.462 287.607,51.462 287.766 C 51.462 287.924,51.186 288.053,50.849 288.053 C 50.512 288.053,50.124 288.166,49.986 288.304 C 49.848 288.442,49.635 288.562,49.513 288.570 C 49.390 288.578,48.651 288.920,47.870 289.328 C 47.089 289.737,46.449 289.974,46.449 289.853 C 46.449 289.733,46.121 290.052,45.720 290.562 L 44.990 291.490 46.137 292.460 C 47.765 293.835,47.861 293.891,48.774 293.993 C 49.225 294.044,49.677 294.194,49.777 294.327 C 49.876 294.461,50.334 294.609,50.794 294.657 C 51.253 294.705,51.855 294.839,52.130 294.954 C 52.691 295.188,52.846 295.227,55.556 295.806 C 56.612 296.032,57.477 296.309,57.477 296.422 C 57.477 296.534,57.928 296.560,58.480 296.479 C 59.051 296.395,59.482 296.483,59.482 296.683 C 59.482 296.898,59.937 296.960,60.652 296.844 C 61.398 296.723,61.821 296.788,61.821 297.024 C 61.821 297.253,62.187 297.320,62.783 297.201 C 63.341 297.089,63.843 297.167,63.979 297.387 C 64.124 297.622,64.645 297.684,65.360 297.550 C 66.023 297.425,66.692 297.488,66.945 297.698 C 67.185 297.898,67.823 298.063,68.361 298.065 C 70.316 298.074,79.702 299.201,79.800 299.439 C 79.855 299.573,80.795 299.602,81.888 299.503 C 83.289 299.376,83.876 299.438,83.876 299.714 C 83.876 299.991,84.363 300.042,85.533 299.887 C 86.444 299.766,87.459 299.785,87.789 299.929 C 88.118 300.073,89.215 300.234,90.226 300.287 C 91.236 300.339,93.266 300.467,94.737 300.572 C 96.207 300.676,98.312 300.821,99.415 300.892 C 100.518 300.964,102.548 301.113,103.926 301.224 C 105.305 301.334,108.495 301.522,111.016 301.641 C 113.536 301.760,115.517 301.989,115.417 302.151 C 115.313 302.318,116.952 302.348,119.223 302.219 C 122.019 302.061,123.279 302.105,123.441 302.367 C 123.601 302.625,124.783 302.676,127.298 302.532 C 129.293 302.418,131.204 302.458,131.544 302.621 C 131.885 302.783,134.269 302.950,136.842 302.992 C 139.415 303.034,144.227 303.131,147.536 303.209 C 150.844 303.288,158.438 303.466,164.411 303.606 C 178.534 303.936,221.693 303.938,235.589 303.608 C 256.578 303.110,258.519 303.067,263.158 302.992 C 265.731 302.950,268.114 302.784,268.454 302.621 C 268.793 302.459,270.861 302.427,273.049 302.551 C 276.010 302.718,277.026 302.675,277.026 302.381 C 277.026 302.088,278.018 302.043,280.890 302.207 C 283.016 302.329,284.675 302.300,284.578 302.143 C 284.481 301.986,286.539 301.755,289.152 301.631 C 291.764 301.506,294.954 301.318,296.241 301.213 C 297.527 301.108,299.557 300.966,300.752 300.897 C 301.947 300.829,304.052 300.681,305.430 300.569 C 306.809 300.457,308.839 300.330,309.942 300.287 C 311.044 300.243,312.216 300.086,312.545 299.938 C 312.875 299.789,313.890 299.766,314.801 299.887 C 315.971 300.042,316.458 299.991,316.458 299.714 C 316.458 299.438,317.048 299.376,318.463 299.504 C 319.566 299.604,320.468 299.574,320.468 299.438 C 320.468 299.302,322.686 298.996,325.397 298.759 C 328.108 298.522,330.512 298.180,330.739 297.999 C 330.967 297.818,331.545 297.768,332.024 297.889 C 332.520 298.013,333.097 297.941,333.361 297.721 C 333.625 297.502,334.202 297.430,334.698 297.554 C 335.193 297.679,335.770 297.607,336.034 297.387 C 336.291 297.174,336.875 297.096,337.339 297.212 C 337.871 297.346,338.179 297.282,338.179 297.039 C 338.179 296.786,338.580 296.719,339.348 296.844 C 340.063 296.960,340.518 296.898,340.518 296.683 C 340.518 296.483,340.949 296.395,341.520 296.479 C 342.072 296.560,342.523 296.530,342.523 296.413 C 342.523 296.296,343.463 296.024,344.612 295.808 C 346.487 295.455,347.369 295.252,347.870 295.057 C 347.962 295.021,348.165 295.015,348.323 295.043 C 348.480 295.071,348.812 294.926,349.060 294.720 C 349.308 294.514,349.655 294.434,349.832 294.543 C 350.008 294.652,350.202 294.594,350.264 294.415 C 350.326 294.235,350.752 294.046,351.211 293.995 C 352.140 293.891,352.233 293.837,353.863 292.460 L 355.010 291.490 354.280 290.562 C 353.879 290.052,353.551 289.719,353.551 289.823 C 353.551 289.926,352.686 289.572,351.629 289.036 C 350.572 288.500,349.444 288.060,349.123 288.058 C 348.801 288.055,348.538 287.924,348.538 287.766 C 348.538 287.607,348.162 287.550,347.703 287.638 C 347.243 287.725,346.867 287.643,346.867 287.455 C 346.867 287.267,346.566 287.192,346.199 287.288 C 345.536 287.462,345.530 287.299,345.530 266.371 C 345.530 254.771,345.478 245.280,345.415 245.280 C 345.351 245.280,344.843 245.507,344.286 245.785 C 341.979 246.936,331.228 247.057,329.169 245.955 C 328.819 245.768,328.372 245.614,328.176 245.614 C 327.928 245.614,327.820 251.500,327.820 264.996 L 327.820 284.378 326.984 284.378 C 326.525 284.378,326.149 284.218,326.149 284.023 C 326.149 283.793,325.629 283.746,324.669 283.890 C 323.855 284.012,322.990 283.984,322.747 283.827 C 322.504 283.670,321.629 283.509,320.802 283.469 C 319.359 283.398,317.196 283.226,313.617 282.896 C 312.698 282.812,309.428 282.555,306.349 282.326 C 303.271 282.097,300.752 281.790,300.752 281.644 C 300.752 281.497,299.398 281.473,297.744 281.591 C 295.510 281.749,294.737 281.701,294.737 281.404 C 294.737 281.110,294.186 281.065,292.682 281.235 C 291.173 281.406,290.690 281.366,290.864 281.085 C 290.994 280.874,291.294 280.702,291.531 280.702 C 291.768 280.702,292.308 280.401,292.732 280.033 C 293.433 279.425,293.917 279.227,294.160 279.449 C 294.210 279.495,294.614 279.194,295.058 278.780 C 295.502 278.367,296.057 278.028,296.292 278.028 C 296.526 278.028,296.876 277.733,297.069 277.373 C 297.276 276.987,297.625 276.795,297.917 276.907 C 298.212 277.020,298.413 276.905,298.413 276.621 C 298.413 276.360,299.284 275.328,300.350 274.330 C 301.415 273.332,302.575 272.026,302.928 271.429 C 303.281 270.831,303.696 270.343,303.851 270.343 C 304.006 270.343,304.040 270.192,303.926 270.008 C 303.813 269.825,303.888 269.674,304.094 269.674 C 304.299 269.674,304.382 269.537,304.278 269.369 C 304.174 269.200,304.236 269.012,304.416 268.951 C 304.596 268.889,304.799 268.538,304.868 268.170 C 304.937 267.803,305.183 267.051,305.414 266.500 C 305.645 265.948,305.914 264.561,306.012 263.417 C 306.109 262.272,306.319 261.417,306.478 261.515 C 306.637 261.613,306.767 261.300,306.767 260.819 C 306.767 260.321,306.623 260.033,306.433 260.150 C 306.239 260.270,306.099 259.948,306.099 259.385 C 306.099 258.210,305.473 256.307,305.087 256.307 C 304.934 256.307,304.760 255.984,304.702 255.590 C 304.643 255.195,304.369 254.753,304.094 254.608 C 301.904 253.456,299.489 252.491,299.001 252.574 C 298.677 252.629,298.413 252.523,298.413 252.339 C 298.413 252.144,297.927 252.084,297.243 252.195 C 296.484 252.318,296.074 252.252,296.074 252.007 C 296.074 251.491,289.519 251.485,289.200 252.001 C 289.051 252.241,288.397 252.296,287.342 252.156 C 286.216 252.007,285.714 252.058,285.714 252.323 C 285.714 252.580,285.328 252.634,284.545 252.487 C 283.756 252.339,283.375 252.393,283.375 252.654 C 283.375 252.916,282.990 252.968,282.173 252.815 C 281.358 252.662,281.041 252.704,281.190 252.944 C 281.326 253.165,281.038 253.300,280.434 253.300 C 279.898 253.300,278.587 253.765,277.522 254.334 C 275.830 255.237,275.547 255.301,275.289 254.841 C 275.075 254.458,274.837 254.401,274.423 254.630 C 273.872 254.935,268.903 256.319,268.788 256.199 C 268.757 256.167,268.875 252.682,269.051 248.454 C 269.680 233.297,269.625 230.209,268.702 228.856 C 267.733 227.436,266.061 226.232,265.059 226.232 C 264.657 226.232,264.327 226.116,264.327 225.974 C 264.327 225.833,261.884 225.720,258.897 225.724 C 251.655 225.733,206.061 225.181,205.848 225.081 C 205.756 225.038,205.230 225.104,204.678 225.227 M234.410 241.589 C 234.519 241.765,234.800 241.835,235.034 241.746 C 235.578 241.537,237.152 242.882,237.779 244.091 C 239.956 248.287,233.026 251.893,230.560 247.848 C 229.122 245.491,230.863 241.120,232.973 241.789 C 233.309 241.896,233.584 241.823,233.584 241.627 C 233.584 241.183,234.144 241.158,234.410 241.589 M331.161 243.490 C 325.410 244.568,328.039 246.030,336.007 246.184 C 342.931 246.318,346.959 245.151,343.791 243.928 C 342.696 243.506,332.892 243.165,331.161 243.490 M265.330 281.993 C 265.330 282.152,265.922 282.281,266.645 282.281 C 269.127 282.281,269.279 283.126,269.070 295.761 L 269.006 299.626 267.753 300.249 C 267.063 300.592,266.387 300.845,266.249 300.812 C 266.111 300.779,265.998 300.905,265.998 301.091 C 265.998 301.594,263.918 301.381,263.241 300.809 C 262.920 300.537,262.657 300.431,262.657 300.574 C 262.657 300.717,262.469 300.678,262.239 300.489 C 262.009 300.299,261.257 300.038,260.568 299.909 C 259.879 299.780,259.314 299.579,259.313 299.462 C 259.312 299.344,258.677 299.224,257.902 299.193 C 257.128 299.163,256.439 298.976,256.373 298.776 C 256.306 298.576,255.907 298.500,255.481 298.607 C 255.057 298.714,254.613 298.645,254.495 298.454 C 254.377 298.264,254.059 298.193,253.787 298.297 C 253.515 298.402,252.791 298.104,252.177 297.636 C 251.387 297.033,249.758 296.485,246.600 295.760 C 241.068 294.491,241.301 294.839,243.457 291.061 C 244.454 289.315,245.596 287.082,245.995 286.099 L 246.721 284.311 248.841 284.538 C 250.460 284.711,251.002 284.660,251.133 284.321 C 251.261 283.990,252.234 283.873,254.939 283.864 C 257.413 283.855,258.741 283.713,259.097 283.417 C 259.384 283.179,259.777 283.080,259.969 283.199 C 260.160 283.318,260.317 283.255,260.317 283.061 C 260.317 282.866,260.430 282.723,260.568 282.743 C 261.073 282.816,262.322 282.286,262.322 281.999 C 262.322 281.837,262.999 281.704,263.826 281.704 C 264.653 281.704,265.330 281.834,265.330 281.993 M198.851 283.915 C 199.759 284.212,200.501 284.583,200.501 284.740 C 200.501 284.897,200.709 284.945,200.963 284.848 C 201.218 284.750,202.007 284.913,202.718 285.210 C 203.429 285.507,204.085 285.755,204.177 285.761 C 204.269 285.766,204.532 285.927,204.762 286.118 C 204.992 286.308,205.180 286.352,205.180 286.216 C 205.180 286.079,205.368 286.119,205.597 286.306 C 205.827 286.492,206.955 286.906,208.104 287.226 C 209.252 287.546,210.192 287.947,210.192 288.117 C 210.192 288.288,210.335 288.339,210.510 288.231 C 210.684 288.123,212.185 288.565,213.844 289.214 C 215.503 289.862,217.015 290.393,217.202 290.393 C 217.390 290.393,217.544 290.538,217.544 290.716 C 217.544 290.894,217.754 290.959,218.011 290.861 C 218.268 290.762,218.574 290.835,218.690 291.024 C 218.807 291.212,219.103 291.289,219.349 291.194 C 219.989 290.949,220.270 291.938,219.696 292.414 C 219.431 292.634,219.212 292.682,219.210 292.522 C 219.207 292.362,219.084 292.421,218.936 292.653 C 218.096 293.976,211.066 297.575,210.417 297.014 C 210.350 296.956,210.048 297.114,209.747 297.364 C 209.445 297.614,208.971 297.732,208.693 297.625 C 208.415 297.518,208.187 297.593,208.187 297.791 C 208.187 298.006,207.858 298.068,207.372 297.946 C 206.924 297.834,206.464 297.893,206.350 298.077 C 205.639 299.228,200.501 298.157,200.501 296.857 C 200.501 296.610,200.351 296.408,200.167 296.408 C 199.983 296.408,199.857 296.295,199.887 296.157 C 199.917 296.019,199.765 295.480,199.550 294.959 C 199.336 294.439,199.237 293.888,199.331 293.735 C 199.426 293.582,199.339 293.402,199.138 293.336 C 198.937 293.269,198.748 292.580,198.718 291.805 C 198.688 291.030,198.566 290.396,198.447 290.395 C 198.329 290.393,198.042 289.077,197.811 287.469 C 197.580 285.860,197.258 284.282,197.096 283.960 C 196.736 283.244,196.796 283.242,198.851 283.915 " stroke="none" fill="#34344b" fill-rule="evenodd"></path><path id="path1" d="M252.617 185.547 C 252.609 185.593,252.570 187.285,252.531 189.307 C 252.389 196.500,248.653 200.569,240.060 202.888 C 229.000 205.873,215.283 199.168,214.282 190.286 L 214.107 188.735 210.562 188.857 C 207.593 188.959,206.828 189.100,205.848 189.727 C 205.205 190.139,204.245 190.739,203.714 191.061 C 197.452 194.861,197.162 195.239,194.654 202.868 C 192.730 208.721,192.090 211.337,191.313 216.540 C 190.760 220.244,189.273 227.164,187.655 233.574 C 184.600 245.672,184.647 248.145,188.005 251.811 L 189.180 253.094 189.970 251.704 C 191.982 248.161,195.077 245.689,197.995 245.294 L 199.332 245.113 199.499 237.260 C 199.706 227.533,200.201 226.357,204.581 225.185 L 206.143 224.768 206.717 222.576 C 207.558 219.366,207.614 219.354,208.474 222.202 L 209.261 224.809 213.319 225.016 C 215.551 225.129,225.272 225.303,234.921 225.401 C 244.570 225.499,254.087 225.657,256.069 225.753 L 259.674 225.926 260.453 224.158 C 261.416 221.974,261.983 219.395,262.004 217.110 C 262.020 215.222,261.913 214.946,264.835 224.394 C 265.259 225.765,265.610 226.222,266.793 226.939 C 269.495 228.577,269.801 229.776,269.515 237.597 L 269.273 244.234 270.628 244.598 C 273.891 245.477,275.488 248.052,275.456 252.381 C 275.431 255.707,275.362 255.642,277.473 254.302 C 278.343 253.751,279.134 253.300,279.231 253.300 C 279.810 253.300,282.732 249.755,283.026 248.697 C 283.769 246.021,283.267 236.881,282.196 233.584 C 281.497 231.433,279.202 221.382,277.847 214.536 C 275.250 201.420,270.463 191.001,265.771 188.251 C 263.670 187.020,252.750 184.775,252.617 185.547 M115.592 231.497 C 112.119 235.845,108.693 241.948,107.292 246.282 C 106.906 247.477,106.454 248.696,106.288 248.990 C 106.123 249.285,105.882 250.225,105.754 251.079 C 105.626 251.933,105.386 252.632,105.221 252.632 C 105.056 252.632,105.017 253.233,105.135 253.968 C 105.288 254.926,105.231 255.305,104.933 255.305 C 104.681 255.305,104.586 255.569,104.692 255.974 C 104.788 256.342,104.730 256.558,104.564 256.455 C 104.397 256.352,104.261 256.082,104.261 255.856 C 104.261 255.629,103.485 254.711,102.536 253.816 C 101.588 252.921,100.930 252.379,101.074 252.612 C 101.220 252.849,100.950 252.783,100.459 252.461 C 99.977 252.145,99.582 251.678,99.582 251.424 C 99.582 251.169,99.365 250.961,99.100 250.961 C 98.835 250.961,98.408 250.661,98.151 250.295 C 97.894 249.928,97.573 249.740,97.436 249.876 C 97.300 250.013,96.975 249.833,96.715 249.476 C 96.454 249.120,96.238 248.970,96.235 249.142 C 96.233 249.315,96.088 249.231,95.914 248.956 C 95.739 248.680,95.478 248.447,95.334 248.438 C 94.948 248.414,90.755 246.237,90.560 245.958 C 90.468 245.828,89.378 245.360,88.137 244.919 C 86.896 244.477,85.881 243.993,85.881 243.843 C 85.881 243.693,85.714 243.673,85.510 243.799 C 85.305 243.925,85.030 243.854,84.898 243.641 C 84.080 242.317,83.516 243.723,83.721 246.574 C 84.823 261.898,90.453 271.833,102.395 279.527 L 105.376 281.447 109.914 281.158 L 114.453 280.869 114.683 276.358 C 115.241 265.442,116.026 249.370,116.438 240.434 C 116.684 235.104,116.993 230.480,117.125 230.159 C 117.517 229.204,117.210 229.471,115.592 231.497 M117.492 233.271 C 117.379 234.822,116.915 245.038,116.461 255.973 C 116.008 266.909,115.545 276.947,115.434 278.279 L 115.231 280.702 117.066 280.702 L 118.901 280.702 120.420 278.110 C 129.420 262.758,128.614 244.777,118.318 231.266 L 117.698 230.452 117.492 233.271 M78.206 242.626 C 78.476 243.130,78.538 244.091,78.394 245.501 C 78.240 247.006,78.289 247.619,78.563 247.619 C 78.826 247.619,78.881 248.044,78.736 248.956 C 78.618 249.691,78.645 250.292,78.795 250.292 C 78.945 250.292,79.257 251.417,79.488 252.792 C 79.719 254.166,80.051 255.380,80.227 255.488 C 80.402 255.597,80.455 255.832,80.344 256.011 C 80.234 256.190,80.319 256.549,80.535 256.809 C 80.750 257.068,80.829 257.438,80.711 257.629 C 80.592 257.821,80.671 257.978,80.885 257.978 C 81.099 257.978,81.188 258.204,81.082 258.480 C 80.976 258.755,81.052 258.981,81.249 258.981 C 81.447 258.981,81.522 259.206,81.416 259.482 C 81.311 259.758,81.386 259.983,81.583 259.983 C 81.781 259.983,81.856 260.209,81.751 260.485 C 81.645 260.760,81.680 260.986,81.828 260.986 C 81.977 260.986,82.297 261.587,82.540 262.322 C 82.782 263.058,83.116 263.659,83.281 263.659 C 83.446 263.659,83.489 263.810,83.375 263.993 C 83.262 264.177,83.298 264.327,83.456 264.327 C 83.614 264.327,84.054 264.967,84.433 265.748 C 84.813 266.529,85.662 267.872,86.319 268.734 C 87.080 269.730,87.370 270.353,87.116 270.448 C 86.896 270.530,87.093 270.749,87.552 270.934 C 88.012 271.119,89.340 272.265,90.504 273.480 C 91.668 274.695,92.755 275.689,92.919 275.689 C 93.083 275.689,93.463 276.064,93.763 276.522 C 94.063 276.980,94.444 277.271,94.609 277.169 C 94.774 277.067,94.999 277.219,95.109 277.506 C 95.219 277.793,95.491 278.028,95.712 278.028 C 95.933 278.028,96.478 278.367,96.922 278.780 C 97.366 279.194,97.807 279.496,97.904 279.453 C 98.255 279.293,99.248 279.753,99.248 280.076 C 99.248 280.258,99.398 280.314,99.582 280.201 C 99.766 280.087,99.916 280.124,99.916 280.282 C 99.916 280.653,103.225 281.849,103.497 281.577 C 103.750 281.324,103.947 281.485,100.869 279.428 C 89.365 271.738,82.882 259.420,82.875 245.237 C 82.874 243.459,82.227 242.139,81.643 242.723 C 81.527 242.840,81.267 242.803,81.067 242.641 C 80.077 241.845,77.781 241.833,78.206 242.626 M331.948 243.019 C 331.861 243.160,333.904 243.275,336.488 243.275 C 339.072 243.275,341.186 243.160,341.186 243.019 C 341.186 242.878,339.143 242.762,336.647 242.762 C 334.150 242.762,332.036 242.878,331.948 243.019 M329.825 243.295 C 329.825 243.489,329.673 243.555,329.488 243.440 C 329.303 243.326,328.929 243.454,328.658 243.725 C 328.387 243.996,327.986 244.278,327.766 244.351 C 327.201 244.539,327.692 245.197,328.842 245.791 C 332.159 247.507,346.353 246.674,345.310 244.825 C 344.808 243.937,344.082 243.305,343.778 243.493 C 343.598 243.604,343.329 243.497,343.179 243.255 C 342.969 242.916,342.731 242.901,342.131 243.190 C 341.386 243.548,341.383 243.565,342.055 243.586 C 343.210 243.624,344.862 244.313,344.862 244.758 C 344.862 246.615,329.969 246.897,328.452 245.069 C 327.916 244.424,328.446 244.033,330.269 243.729 C 331.144 243.583,331.409 243.426,331.105 243.233 C 330.485 242.840,329.825 242.872,329.825 243.295 " stroke="none" fill="#fbc305" fill-rule="evenodd"></path><path id="path2" d="M193.651 30.406 C 188.628 30.870,181.788 31.842,181.788 32.093 C 181.788 32.222,180.998 32.432,180.033 32.558 C 177.195 32.929,170.603 34.471,170.482 34.792 C 170.420 34.955,170.109 35.088,169.789 35.088 C 169.470 35.088,168.543 35.296,167.729 35.550 C 166.915 35.804,165.572 36.197,164.745 36.424 C 162.831 36.948,161.284 37.503,161.069 37.742 C 160.977 37.844,159.336 38.454,157.422 39.098 C 155.507 39.741,153.751 40.455,153.519 40.685 C 153.287 40.915,152.999 41.103,152.879 41.103 C 152.471 41.103,147.871 43.195,147.701 43.458 C 147.608 43.601,146.262 44.277,144.711 44.959 C 143.160 45.641,141.698 46.391,141.463 46.627 C 141.227 46.862,140.054 47.532,138.855 48.117 C 137.656 48.701,136.675 49.285,136.675 49.414 C 136.675 49.544,135.831 50.091,134.800 50.631 C 133.769 51.171,132.603 51.952,132.210 52.367 C 131.817 52.782,131.359 53.124,131.193 53.127 C 131.026 53.130,130.397 53.509,129.795 53.968 C 129.192 54.428,128.623 54.804,128.529 54.804 C 128.435 54.804,127.786 55.329,127.086 55.972 C 126.387 56.614,125.635 57.140,125.416 57.141 C 125.196 57.142,124.821 57.423,124.580 57.766 C 124.340 58.109,123.429 58.872,122.555 59.462 C 121.681 60.051,120.811 60.823,120.622 61.178 C 120.432 61.532,120.064 61.821,119.804 61.821 C 119.544 61.821,118.766 62.498,118.075 63.325 C 117.383 64.152,116.671 64.829,116.491 64.829 C 116.110 64.829,108.612 72.224,108.608 72.604 C 108.606 72.745,107.906 73.572,107.052 74.442 C 104.078 77.472,103.592 78.031,103.592 78.422 C 103.592 78.638,103.247 79.089,102.826 79.424 C 102.404 79.759,101.578 80.736,100.989 81.596 C 100.400 82.455,99.730 83.359,99.500 83.605 C 98.824 84.327,97.038 87.000,96.808 87.636 C 96.691 87.957,96.469 88.221,96.314 88.221 C 96.159 88.221,95.524 89.123,94.904 90.226 C 94.284 91.328,93.664 92.231,93.528 92.231 C 93.391 92.231,92.737 93.358,92.074 94.737 C 91.411 96.115,90.757 97.243,90.620 97.243 C 90.484 97.243,89.784 98.521,89.066 100.084 C 88.347 101.646,87.653 102.924,87.523 102.924 C 87.393 102.924,86.734 104.353,86.057 106.099 C 85.381 107.845,84.706 109.273,84.558 109.273 C 84.410 109.273,84.212 109.612,84.119 110.025 C 83.852 111.215,82.145 115.721,81.683 116.458 C 81.253 117.144,79.198 124.067,79.198 124.832 C 79.198 125.066,79.047 125.308,78.863 125.369 C 78.534 125.479,76.190 135.680,76.190 137.002 C 76.190 137.374,76.067 137.678,75.915 137.678 C 75.619 137.678,74.752 143.824,74.171 150.042 C 73.710 154.979,73.711 169.797,74.173 174.770 C 74.722 180.685,75.560 186.949,75.828 187.135 C 75.961 187.226,76.262 188.429,76.498 189.808 C 77.095 193.310,78.573 199.632,78.840 199.833 C 78.963 199.925,79.342 200.977,79.682 202.172 C 80.847 206.258,81.638 208.688,81.856 208.855 C 81.977 208.947,82.581 210.450,83.199 212.194 C 83.817 213.938,84.523 215.565,84.768 215.810 C 85.013 216.055,85.213 216.407,85.213 216.593 C 85.213 217.081,87.259 221.690,87.564 221.888 C 87.706 221.980,88.216 222.948,88.699 224.040 C 89.182 225.132,90.079 226.786,90.693 227.716 C 91.306 228.646,91.905 229.718,92.023 230.098 C 92.141 230.478,92.912 231.748,93.738 232.920 C 94.563 234.092,95.238 235.239,95.238 235.468 C 95.238 235.698,95.521 236.083,95.867 236.325 C 96.212 236.567,96.851 237.386,97.287 238.144 C 98.030 239.437,98.687 240.349,100.501 242.604 C 100.915 243.118,101.256 243.667,101.259 243.824 C 101.262 243.982,101.861 244.698,102.590 245.417 C 103.319 246.135,103.999 246.986,104.101 247.308 C 104.270 247.840,105.895 249.161,106.058 248.899 C 106.096 248.838,106.816 247.032,107.659 244.886 C 109.869 239.258,115.807 229.781,117.128 229.774 C 118.695 229.767,125.982 245.172,125.982 248.492 C 125.982 249.131,126.337 249.073,127.139 248.303 C 128.561 246.939,129.247 246.400,131.672 244.738 C 135.931 241.820,144.647 237.769,145.288 238.410 C 146.492 239.615,144.589 258.104,143.050 260.150 C 142.912 260.334,142.456 261.423,142.036 262.570 C 141.617 263.717,140.841 265.339,140.311 266.174 C 139.782 267.009,139.344 267.800,139.339 267.931 C 139.325 268.284,137.690 270.384,135.884 272.369 L 134.299 274.111 135.688 274.900 C 136.452 275.334,137.212 275.689,137.377 275.689 C 137.543 275.689,137.678 275.817,137.678 275.972 C 137.678 276.128,138.768 276.825,140.100 277.520 C 141.433 278.216,142.622 278.939,142.742 279.127 C 142.889 279.357,145.518 279.381,150.762 279.201 C 155.053 279.053,163.300 278.903,169.089 278.866 C 174.879 278.830,180.518 278.685,181.621 278.545 L 183.626 278.289 181.955 277.624 C 181.036 277.258,179.908 276.799,179.449 276.604 C 178.989 276.409,178.500 276.274,178.363 276.304 C 178.225 276.333,178.112 276.207,178.112 276.023 C 178.112 275.840,177.879 275.689,177.593 275.689 C 176.676 275.689,169.650 272.135,167.762 270.715 C 166.756 269.959,165.821 269.340,165.684 269.340 C 165.282 269.340,162.733 265.732,162.063 264.216 C 160.814 261.390,160.918 257.490,162.327 254.302 C 162.611 253.659,162.820 253.020,162.792 252.882 C 162.763 252.744,162.891 252.632,163.074 252.632 C 163.258 252.632,163.409 252.437,163.409 252.198 C 163.409 251.749,166.498 246.875,167.410 245.886 C 169.261 243.879,176.234 244.371,182.716 246.966 C 184.071 247.509,185.216 247.953,185.260 247.953 C 185.303 247.953,185.274 247.047,185.194 245.940 C 185.043 243.860,185.252 242.820,188.641 228.739 C 189.437 225.430,190.335 221.145,190.635 219.215 C 191.593 213.064,192.837 207.826,194.563 202.673 C 197.107 195.078,197.322 194.764,201.776 192.135 C 204.713 190.401,205.304 189.295,204.576 186.893 C 200.733 174.219,201.132 172.024,208.688 164.253 C 214.851 157.915,215.878 156.017,216.014 150.710 C 216.141 145.777,219.974 140.645,224.147 139.822 C 224.747 139.704,225.321 139.471,225.424 139.305 C 225.526 139.139,225.757 139.094,225.936 139.205 C 226.115 139.315,226.445 139.254,226.668 139.068 C 226.892 138.883,229.103 138.567,231.583 138.368 C 234.062 138.168,237.662 137.867,239.584 137.698 C 244.263 137.287,250.292 138.058,250.292 139.067 C 250.292 139.222,250.405 139.312,250.543 139.267 C 251.622 138.918,254.304 143.072,255.828 147.452 C 256.291 148.785,256.870 150.251,257.113 150.710 C 257.357 151.170,258.047 153.049,258.647 154.887 C 259.247 156.725,259.854 158.379,259.994 158.563 C 260.135 158.747,260.799 160.321,261.469 162.062 C 262.139 163.802,262.811 165.306,262.961 165.403 C 263.112 165.501,263.540 166.182,263.913 166.917 C 264.285 167.652,265.779 169.692,267.232 171.450 C 272.149 177.400,272.515 180.414,269.151 187.264 C 268.529 188.530,268.120 189.733,268.241 189.937 C 268.363 190.142,269.020 191.061,269.701 191.980 C 271.072 193.830,273.117 197.761,274.047 200.334 C 274.379 201.253,275.041 203.044,275.518 204.314 C 275.995 205.584,276.746 208.516,277.187 210.830 C 278.296 216.655,280.134 224.876,281.527 230.242 C 284.401 241.317,284.279 248.758,281.176 251.619 C 279.597 253.074,279.433 253.734,280.837 252.983 C 281.279 252.746,281.812 252.659,282.021 252.788 C 282.231 252.917,282.583 252.874,282.805 252.691 C 284.300 251.460,296.991 251.389,300.012 252.595 C 301.862 253.333,303.091 253.500,303.091 253.012 C 303.091 252.854,304.294 251.470,305.764 249.938 C 307.235 248.405,308.438 246.968,308.438 246.744 C 308.438 246.521,308.793 246.062,309.226 245.725 C 309.660 245.388,310.494 244.398,311.080 243.525 C 311.666 242.652,312.289 241.938,312.464 241.938 C 312.639 241.938,312.782 241.803,312.782 241.638 C 312.782 241.267,314.843 238.115,315.965 236.770 C 316.420 236.225,316.792 235.608,316.792 235.399 C 316.792 235.189,317.167 234.613,317.626 234.118 C 318.084 233.624,318.991 232.217,319.641 230.992 C 320.291 229.767,320.948 228.684,321.099 228.585 C 321.251 228.485,321.948 227.201,322.648 225.731 C 323.348 224.261,324.048 222.972,324.204 222.868 C 324.359 222.764,325.032 221.341,325.698 219.707 C 326.365 218.072,327.090 216.555,327.310 216.334 C 327.531 216.114,328.125 214.680,328.632 213.147 C 329.139 211.614,329.689 210.276,329.854 210.174 C 330.020 210.071,330.702 208.116,331.371 205.829 C 332.039 203.542,332.693 201.596,332.823 201.504 C 333.103 201.307,334.240 196.837,335.033 192.815 C 335.341 191.253,335.701 189.900,335.832 189.808 C 336.131 189.599,337.375 181.275,337.905 175.940 C 338.517 169.772,338.417 153.590,337.728 147.368 C 336.983 140.643,336.124 135.338,335.779 135.338 C 335.629 135.338,335.505 135.048,335.505 134.692 C 335.505 133.682,333.119 123.495,332.839 123.308 C 332.701 123.216,332.506 122.840,332.405 122.473 C 331.493 119.139,329.968 114.716,329.605 114.353 C 329.358 114.106,329.156 113.730,329.156 113.517 C 329.156 112.783,327.426 108.605,327.122 108.605 C 326.954 108.605,326.817 108.398,326.817 108.145 C 326.817 107.485,324.484 102.444,324.117 102.311 C 323.948 102.250,323.810 102.058,323.810 101.884 C 323.810 101.486,321.512 96.818,321.200 96.583 C 320.924 96.373,320.305 95.297,319.225 93.150 C 318.787 92.277,318.309 91.562,318.164 91.562 C 318.018 91.562,317.555 90.892,317.134 90.073 C 316.713 89.254,316.125 88.309,315.828 87.973 C 315.132 87.185,313.116 84.244,313.116 84.017 C 313.116 83.921,312.590 83.301,311.947 82.639 C 311.303 81.977,310.777 81.243,310.777 81.009 C 310.777 80.775,310.438 80.309,310.023 79.974 C 309.609 79.639,309.026 78.989,308.728 78.530 C 307.208 76.186,297.905 66.530,293.403 62.623 C 292.577 61.906,291.374 60.833,290.729 60.237 C 290.085 59.641,289.407 59.151,289.223 59.147 C 289.039 59.144,288.374 58.611,287.744 57.962 C 287.114 57.314,286.094 56.544,285.477 56.252 C 284.859 55.959,284.204 55.438,284.020 55.094 C 283.836 54.751,283.531 54.470,283.341 54.470 C 283.151 54.470,282.503 54.094,281.901 53.634 C 281.299 53.175,280.715 52.799,280.604 52.799 C 280.493 52.799,280.010 52.435,279.531 51.991 C 279.052 51.547,277.991 50.870,277.175 50.486 C 276.358 50.102,275.689 49.661,275.689 49.506 C 275.689 49.351,274.524 48.652,273.099 47.952 C 271.675 47.251,270.431 46.561,270.335 46.417 C 270.239 46.272,268.961 45.588,267.494 44.895 C 266.028 44.202,264.656 43.467,264.444 43.261 C 264.232 43.056,262.916 42.470,261.520 41.961 C 260.123 41.452,258.981 40.917,258.981 40.774 C 258.981 40.630,258.718 40.432,258.396 40.334 C 256.149 39.648,251.784 38.018,251.639 37.810 C 251.462 37.559,247.907 36.469,244.110 35.504 C 243.008 35.224,242.030 34.882,241.938 34.744 C 241.741 34.450,232.273 32.414,231.101 32.414 C 230.660 32.414,230.248 32.269,230.187 32.092 C 229.744 30.808,202.772 29.564,193.651 30.406 M262.127 222.673 C 259.518 225.325,259.550 225.564,262.514 225.564 C 264.416 225.564,265.028 225.457,264.913 225.146 C 264.828 224.916,264.499 223.939,264.182 222.974 C 263.865 222.009,263.580 221.234,263.549 221.253 C 263.518 221.271,262.878 221.910,262.127 222.673 M206.515 223.728 C 206.332 224.210,206.182 224.670,206.182 224.750 C 206.182 224.830,206.854 224.896,207.675 224.896 C 209.395 224.896,209.453 224.390,207.842 223.438 C 206.853 222.854,206.847 222.856,206.515 223.728 M231.913 242.365 C 230.783 242.930,229.833 244.851,230.067 246.098 C 230.803 250.014,235.969 250.659,237.487 247.024 C 238.877 243.699,235.273 240.687,231.913 242.365 M335.431 242.517 C 336.217 242.588,337.420 242.587,338.104 242.515 C 338.788 242.443,338.145 242.386,336.675 242.387 C 335.205 242.388,334.645 242.447,335.431 242.517 M92.565 243.108 C 93.024 243.370,93.551 243.585,93.734 243.585 C 93.918 243.585,93.693 243.370,93.233 243.108 C 92.774 242.845,92.247 242.630,92.063 242.630 C 91.880 242.630,92.105 242.845,92.565 243.108 M77.861 245.260 C 77.861 245.639,78.012 245.948,78.195 245.948 C 78.379 245.948,78.530 245.732,78.530 245.467 C 78.530 245.202,78.379 244.892,78.195 244.779 C 78.012 244.665,77.861 244.882,77.861 245.260 M78.195 248.789 C 78.195 249.064,78.346 249.290,78.530 249.290 C 78.713 249.290,78.864 249.064,78.864 248.789 C 78.864 248.513,78.713 248.287,78.530 248.287 C 78.346 248.287,78.195 248.513,78.195 248.789 M78.530 251.128 C 78.530 251.404,78.680 251.629,78.864 251.629 C 79.048 251.629,79.198 251.404,79.198 251.128 C 79.198 250.852,79.048 250.627,78.864 250.627 C 78.680 250.627,78.530 250.852,78.530 251.128 M274.166 254.163 C 273.572 254.646,273.569 254.675,274.129 254.497 C 274.466 254.390,274.879 254.302,275.048 254.302 C 275.217 254.302,275.355 254.152,275.355 253.968 C 275.355 253.484,274.909 253.557,274.166 254.163 M83.208 264.423 C 83.208 264.900,84.006 266.332,84.272 266.332 C 84.430 266.332,84.301 265.919,83.985 265.414 C 83.235 264.214,83.208 264.180,83.208 264.423 M93.098 276.305 C 92.983 276.492,93.051 276.746,93.250 276.869 C 93.764 277.187,94.095 276.752,93.666 276.323 C 93.426 276.083,93.239 276.077,93.098 276.305 M139.771 279.605 C 140.279 279.682,141.031 279.680,141.442 279.600 C 141.853 279.521,141.437 279.458,140.518 279.461 C 139.599 279.463,139.263 279.528,139.771 279.605 M130.246 279.936 C 130.662 280.016,131.263 280.012,131.583 279.929 C 131.902 279.845,131.562 279.780,130.827 279.784 C 130.092 279.787,129.830 279.856,130.246 279.936 M297.678 281.437 C 297.989 281.749,298.168 281.749,298.480 281.437 C 298.791 281.125,298.702 281.036,298.079 281.036 C 297.455 281.036,297.366 281.125,297.678 281.437 M95.906 281.704 C 95.906 281.888,96.282 282.038,96.742 282.038 C 97.201 282.038,97.577 281.888,97.577 281.704 C 97.577 281.520,97.201 281.370,96.742 281.370 C 96.282 281.370,95.906 281.520,95.906 281.704 M302.757 281.704 C 302.757 281.888,303.058 282.038,303.425 282.038 C 303.793 282.038,304.094 281.888,304.094 281.704 C 304.094 281.520,303.793 281.370,303.425 281.370 C 303.058 281.370,302.757 281.520,302.757 281.704 M261.830 282.584 C 260.121 283.541,257.593 284.035,254.386 284.039 C 252.686 284.042,251.295 284.178,251.295 284.342 C 251.295 284.507,250.856 285.111,250.319 285.686 C 247.978 288.192,246.998 291.898,248.108 294.044 C 248.980 295.730,253.549 298.362,255.667 298.398 C 256.142 298.406,256.634 298.516,256.760 298.642 C 256.886 298.769,257.249 298.905,257.567 298.946 C 258.536 299.072,259.388 299.311,262.086 300.217 C 265.229 301.272,265.087 301.271,267.251 300.263 L 269.006 299.446 269.006 291.393 L 269.006 283.341 267.905 282.881 C 266.023 282.095,262.971 281.946,261.830 282.584 M197.494 284.244 C 197.494 285.081,198.174 289.133,198.413 289.724 C 198.525 290.000,198.653 290.451,198.699 290.727 C 199.656 296.524,201.021 298.241,204.456 297.975 C 207.079 297.771,211.424 296.889,212.027 296.438 C 212.213 296.299,212.891 295.980,213.534 295.730 C 214.691 295.279,217.890 293.456,218.212 293.063 C 218.304 292.952,218.743 292.612,219.187 292.308 L 219.995 291.755 219.020 291.408 C 218.484 291.217,217.820 290.933,217.544 290.776 C 217.268 290.620,215.238 289.927,213.033 289.236 C 210.827 288.544,208.872 287.865,208.688 287.727 C 208.505 287.588,207.076 287.058,205.514 286.549 C 203.952 286.041,202.523 285.536,202.339 285.428 C 202.155 285.320,201.805 285.202,201.561 285.165 C 201.317 285.128,200.641 284.877,200.058 284.608 C 198.074 283.691,197.494 283.609,197.494 284.244 M65.831 284.712 C 65.831 284.896,66.057 285.046,66.332 285.046 C 66.608 285.046,66.834 284.896,66.834 284.712 C 66.834 284.528,66.608 284.378,66.332 284.378 C 66.057 284.378,65.831 284.528,65.831 284.712 M77.527 299.415 C 77.527 299.599,77.753 299.749,78.028 299.749 C 78.304 299.749,78.530 299.599,78.530 299.415 C 78.530 299.231,78.304 299.081,78.028 299.081 C 77.753 299.081,77.527 299.231,77.527 299.415 M321.805 299.415 C 321.805 299.599,322.030 299.749,322.306 299.749 C 322.581 299.749,322.807 299.599,322.807 299.415 C 322.807 299.231,322.581 299.081,322.306 299.081 C 322.030 299.081,321.805 299.231,321.805 299.415 M81.036 299.749 C 80.922 299.933,81.148 300.084,81.537 300.084 C 81.926 300.084,82.152 299.933,82.038 299.749 C 81.925 299.566,81.699 299.415,81.537 299.415 C 81.375 299.415,81.150 299.566,81.036 299.749 M318.296 299.749 C 318.182 299.933,318.408 300.084,318.797 300.084 C 319.186 300.084,319.412 299.933,319.298 299.749 C 319.185 299.566,318.959 299.415,318.797 299.415 C 318.635 299.415,318.409 299.566,318.296 299.749 M111.278 302.089 C 111.278 302.272,111.579 302.423,111.947 302.423 C 112.314 302.423,112.615 302.272,112.615 302.089 C 112.615 301.905,112.314 301.754,111.947 301.754 C 111.579 301.754,111.278 301.905,111.278 302.089 M287.385 302.089 C 287.385 302.272,287.686 302.423,288.053 302.423 C 288.421 302.423,288.722 302.272,288.722 302.089 C 288.722 301.905,288.421 301.754,288.053 301.754 C 287.686 301.754,287.385 301.905,287.385 302.089 M118.296 302.423 C 118.296 302.607,118.756 302.757,119.318 302.757 C 119.914 302.757,120.254 302.618,120.134 302.423 C 120.020 302.239,119.560 302.089,119.111 302.089 C 118.663 302.089,118.296 302.239,118.296 302.423 M280.368 302.423 C 279.987 302.669,280.128 302.748,280.952 302.752 C 281.550 302.755,282.038 302.607,282.038 302.423 C 282.038 301.998,281.024 301.998,280.368 302.423 M126.399 302.987 C 126.721 303.071,127.247 303.071,127.569 302.987 C 127.891 302.903,127.627 302.834,126.984 302.834 C 126.341 302.834,126.078 302.903,126.399 302.987 M272.431 302.987 C 272.753 303.071,273.279 303.071,273.601 302.987 C 273.922 302.903,273.659 302.834,273.016 302.834 C 272.373 302.834,272.109 302.903,272.431 302.987 M135.927 303.327 C 136.343 303.407,136.944 303.404,137.264 303.321 C 137.583 303.237,137.243 303.172,136.508 303.175 C 135.773 303.179,135.511 303.247,135.927 303.327 M263.074 303.321 C 263.396 303.405,263.922 303.405,264.244 303.321 C 264.566 303.237,264.302 303.169,263.659 303.169 C 263.016 303.169,262.753 303.237,263.074 303.321 M147.285 303.661 C 147.698 303.741,148.375 303.741,148.789 303.661 C 149.202 303.581,148.864 303.516,148.037 303.516 C 147.210 303.516,146.871 303.581,147.285 303.661 M251.211 303.661 C 251.625 303.741,252.302 303.741,252.715 303.661 C 253.129 303.581,252.790 303.516,251.963 303.516 C 251.136 303.516,250.798 303.581,251.211 303.661 M162.663 304.002 C 163.263 304.076,164.166 304.074,164.668 303.998 C 165.170 303.922,164.678 303.861,163.576 303.863 C 162.473 303.865,162.062 303.927,162.663 304.002 M235.511 304.002 C 236.112 304.076,237.014 304.074,237.516 303.998 C 238.019 303.922,237.527 303.861,236.424 303.863 C 235.322 303.865,234.911 303.927,235.511 304.002 " stroke="none" fill="#f4f3f3" fill-rule="evenodd"></path><path id="path3" d="M242.356 137.574 C 242.678 137.658,243.204 137.658,243.525 137.574 C 243.847 137.490,243.584 137.421,242.941 137.421 C 242.297 137.421,242.034 137.490,242.356 137.574 M220.398 165.136 C 219.056 169.655,220.294 175.818,223.272 179.441 C 223.797 180.080,224.227 180.762,224.227 180.955 C 224.227 181.960,215.693 188.805,214.442 188.805 C 213.827 188.805,214.450 191.823,215.507 193.972 C 218.986 201.037,230.894 205.362,240.060 202.888 C 248.684 200.560,252.397 196.497,252.519 189.256 L 252.582 185.529 251.354 185.307 C 250.016 185.065,245.614 183.155,245.614 182.816 C 245.614 182.701,246.264 181.995,247.059 181.247 C 251.110 177.435,253.015 171.409,251.870 166.028 L 251.610 164.805 249.698 165.957 C 242.387 170.359,227.437 169.497,221.936 164.356 L 220.914 163.401 220.398 165.136 M191.229 215.706 C 191.233 216.441,191.301 216.703,191.381 216.287 C 191.461 215.871,191.458 215.270,191.374 214.950 C 191.290 214.631,191.225 214.971,191.229 215.706 M120.468 234.921 C 120.753 235.472,121.061 235.923,121.153 235.923 C 121.245 235.923,121.087 235.472,120.802 234.921 C 120.517 234.369,120.208 233.918,120.117 233.918 C 120.025 233.918,120.183 234.369,120.468 234.921 M109.440 240.602 C 109.155 241.153,108.997 241.604,109.089 241.604 C 109.181 241.604,109.489 241.153,109.774 240.602 C 110.060 240.050,110.218 239.599,110.126 239.599 C 110.034 239.599,109.725 240.050,109.440 240.602 M82.456 242.113 C 82.368 242.577,82.425 243.037,82.584 243.135 C 82.744 243.234,82.874 242.854,82.874 242.292 C 82.874 241.051,82.676 240.967,82.456 242.113 M77.866 243.339 C 77.864 244.017,78.012 244.665,78.195 244.779 C 78.626 245.045,78.626 243.273,78.195 242.607 C 77.954 242.233,77.870 242.419,77.866 243.339 M335.414 242.848 C 336.008 242.922,337.060 242.923,337.754 242.850 C 338.447 242.778,337.962 242.718,336.675 242.716 C 335.388 242.715,334.821 242.774,335.414 242.848 M283.466 244.277 C 283.466 245.104,283.531 245.443,283.611 245.029 C 283.691 244.616,283.691 243.939,283.611 243.525 C 283.531 243.112,283.466 243.450,283.466 244.277 M345.098 243.833 C 344.980 244.023,345.100 244.464,345.363 244.813 C 345.880 245.495,345.974 245.177,345.565 244.132 C 345.419 243.760,345.221 243.633,345.098 243.833 M269.223 247.844 C 269.104 249.799,269.006 252.440,269.006 253.713 L 269.006 256.026 270.092 255.812 C 271.798 255.475,275.319 253.607,275.535 252.924 C 276.517 249.831,273.714 245.312,270.309 244.498 L 269.441 244.290 269.223 247.844 M197.995 245.294 C 196.072 245.554,193.442 247.105,192.003 248.826 L 190.759 250.314 194.989 252.337 C 197.315 253.450,199.286 254.293,199.368 254.210 C 199.451 254.128,199.476 252.047,199.425 249.586 L 199.332 245.113 197.995 245.294 M91.228 246.408 C 91.687 246.676,92.125 246.833,92.202 246.756 C 92.410 246.549,92.159 246.391,91.228 246.143 L 90.393 245.920 91.228 246.408 M106.337 248.172 C 106.131 248.843,106.095 249.257,106.258 249.091 C 106.585 248.756,107.092 246.951,106.859 246.951 C 106.778 246.951,106.543 247.500,106.337 248.172 M93.261 247.386 C 93.338 247.442,93.851 247.751,94.403 248.074 L 95.405 248.661 94.616 247.973 C 94.182 247.595,93.669 247.285,93.475 247.285 C 93.280 247.285,93.184 247.330,93.261 247.386 M101.921 249.729 C 101.921 249.786,102.401 250.275,102.986 250.815 L 104.051 251.796 103.237 250.729 C 102.545 249.822,101.921 249.347,101.921 249.729 M99.582 251.789 C 99.582 251.843,99.954 252.130,100.408 252.427 C 101.054 252.851,101.194 252.866,101.053 252.499 C 100.904 252.111,99.582 251.473,99.582 251.789 M104.595 254.804 C 104.595 255.079,104.745 255.305,104.929 255.305 C 105.113 255.305,105.263 255.079,105.263 254.804 C 105.263 254.528,105.113 254.302,104.929 254.302 C 104.745 254.302,104.595 254.528,104.595 254.804 M85.226 267.502 C 85.227 267.686,85.535 268.212,85.911 268.672 C 86.365 269.227,86.479 269.283,86.249 268.839 C 85.686 267.749,85.223 267.145,85.226 267.502 M89.088 272.682 C 89.748 273.601,90.450 274.353,90.648 274.353 C 90.846 274.353,91.321 274.610,91.703 274.925 C 92.085 275.241,91.425 274.489,90.235 273.255 C 89.046 272.021,88.031 271.011,87.980 271.011 C 87.929 271.011,88.428 271.763,89.088 272.682 M174.359 278.939 C 174.959 279.013,175.861 279.012,176.364 278.936 C 176.866 278.859,176.374 278.798,175.272 278.800 C 174.169 278.802,173.758 278.865,174.359 278.939 M262.527 281.978 C 262.434 282.129,262.801 282.187,263.343 282.107 C 263.884 282.028,264.327 281.904,264.327 281.833 C 264.327 281.579,262.693 281.710,262.527 281.978 M247.110 284.645 C 246.931 284.774,246.205 286.082,245.498 287.552 C 244.790 289.023,243.684 291.099,243.039 292.167 C 241.625 294.507,241.384 294.240,245.992 295.431 C 250.593 296.620,250.728 296.622,249.407 295.480 C 246.883 293.297,246.957 290.426,249.638 286.530 C 250.217 285.688,250.639 284.956,250.575 284.902 C 250.275 284.652,247.399 284.439,247.110 284.645 " stroke="none" fill="#e3a4a4" fill-rule="evenodd"></path><path id="path4" d="M237.260 138.012 C 236.572 138.232,236.542 138.284,237.093 138.307 C 237.460 138.323,237.987 138.190,238.262 138.012 C 238.848 137.633,238.441 137.633,237.260 138.012 M233.250 138.346 L 232.080 138.592 233.481 138.636 C 234.251 138.660,234.974 138.530,235.088 138.346 C 235.315 137.978,234.997 137.978,233.250 138.346 M228.906 138.680 C 228.114 138.934,228.127 138.949,229.156 138.981 C 229.754 138.999,230.242 138.864,230.242 138.680 C 230.242 138.302,230.085 138.302,228.906 138.680 M248.622 138.584 C 248.897 138.687,249.424 138.909,249.791 139.078 C 250.449 139.380,250.449 139.377,249.811 138.866 C 249.454 138.580,248.928 138.358,248.641 138.372 C 248.191 138.395,248.189 138.424,248.622 138.584 M219.087 143.025 C 218.422 143.761,217.878 144.472,217.878 144.605 C 217.878 144.738,218.338 144.289,218.900 143.607 C 219.463 142.925,220.177 142.219,220.488 142.037 C 220.798 141.856,220.882 141.703,220.674 141.698 C 220.465 141.692,219.751 142.289,219.087 143.025 M254.120 143.860 C 254.262 144.227,254.454 144.791,254.546 145.113 C 254.639 145.434,254.851 145.698,255.018 145.698 C 255.185 145.698,255.074 145.209,254.770 144.612 C 254.119 143.333,253.752 142.908,254.120 143.860 M257.505 152.715 C 257.753 153.646,257.911 153.897,258.118 153.689 C 258.195 153.612,258.038 153.174,257.770 152.715 L 257.282 151.880 257.505 152.715 M215.266 155.554 C 215.056 156.014,215.014 156.391,215.173 156.391 C 215.450 156.391,215.950 155.020,215.747 154.817 C 215.692 154.762,215.476 155.094,215.266 155.554 M205.587 167.622 C 204.984 168.429,204.557 169.089,204.640 169.089 C 204.876 169.089,206.945 166.398,206.807 166.270 C 206.739 166.207,206.190 166.816,205.587 167.622 M263.291 166.583 C 263.855 167.673,264.317 168.277,264.315 167.920 C 264.314 167.736,264.005 167.210,263.629 166.750 C 263.175 166.195,263.062 166.139,263.291 166.583 M219.659 169.256 C 219.660 170.543,219.720 171.028,219.793 170.335 C 219.865 169.642,219.864 168.589,219.790 167.996 C 219.716 167.403,219.657 167.970,219.659 169.256 M265.961 170.259 C 267.549 172.330,269.259 174.213,268.388 172.932 C 268.013 172.381,267.083 171.253,266.321 170.426 C 264.999 168.991,264.983 168.983,265.961 170.259 M203.705 170.261 C 203.099 171.186,202.443 172.765,202.664 172.765 C 202.742 172.765,203.183 172.013,203.644 171.094 C 204.553 169.285,204.579 168.927,203.705 170.261 M269.257 186.192 C 268.465 188.076,268.706 188.145,269.607 186.292 C 270.007 185.469,270.223 184.797,270.088 184.799 C 269.952 184.801,269.578 185.427,269.257 186.192 M261.970 222.473 L 260.819 223.726 262.072 222.574 C 263.238 221.502,263.479 221.220,263.223 221.220 C 263.168 221.220,262.604 221.784,261.970 222.473 M207.769 225.143 C 208.918 225.208,210.798 225.208,211.947 225.143 C 213.095 225.078,212.155 225.024,209.858 225.024 C 207.561 225.024,206.621 225.078,207.769 225.143 M229.992 225.469 C 230.497 225.546,231.324 225.546,231.830 225.469 C 232.335 225.393,231.921 225.330,230.911 225.330 C 229.900 225.330,229.486 225.393,229.992 225.469 M254.052 225.794 C 254.373 225.878,254.900 225.878,255.221 225.794 C 255.543 225.710,255.280 225.641,254.637 225.641 C 253.993 225.641,253.730 225.710,254.052 225.794 M260.234 225.800 C 260.647 225.879,261.324 225.879,261.738 225.800 C 262.151 225.720,261.813 225.655,260.986 225.655 C 260.159 225.655,259.820 225.720,260.234 225.800 M85.689 239.559 C 85.789 239.720,86.212 239.938,86.628 240.043 C 87.358 240.227,87.362 240.217,86.736 239.749 C 86.018 239.213,85.407 239.101,85.689 239.559 M87.886 239.655 C 87.886 239.869,87.985 239.946,88.106 239.825 C 88.227 239.704,88.490 239.738,88.691 239.901 C 89.382 240.463,91.562 241.235,91.562 240.919 C 91.562 240.744,91.405 240.602,91.212 240.602 C 91.019 240.602,90.239 240.301,89.478 239.933 C 87.854 239.148,87.886 239.154,87.886 239.655 M141.103 239.609 C 140.689 239.776,140.351 239.992,140.351 240.089 C 140.351 240.414,140.883 240.274,141.540 239.777 C 142.279 239.218,142.176 239.178,141.103 239.609 M82.965 241.604 C 82.965 242.431,83.030 242.769,83.110 242.356 C 83.189 241.942,83.189 241.266,83.110 240.852 C 83.030 240.439,82.965 240.777,82.965 241.604 M83.633 242.272 C 83.633 243.099,83.698 243.438,83.778 243.024 C 83.858 242.611,83.858 241.934,83.778 241.520 C 83.698 241.107,83.633 241.445,83.633 242.272 M89.634 241.332 C 89.800 241.832,90.560 242.107,90.560 241.668 C 90.560 241.488,90.322 241.250,90.031 241.138 C 89.705 241.013,89.552 241.088,89.634 241.332 M92.565 241.797 C 92.565 241.894,93.016 242.130,93.567 242.322 C 94.119 242.515,94.570 242.808,94.570 242.973 C 94.570 243.139,94.829 243.275,95.145 243.275 C 95.630 243.275,95.609 243.196,95.012 242.778 C 94.172 242.190,92.565 241.545,92.565 241.797 M135.422 242.359 C 134.641 242.751,134.002 243.183,134.002 243.317 C 134.002 243.452,134.678 243.184,135.505 242.722 C 136.332 242.259,137.009 241.819,137.009 241.743 C 137.009 241.558,137.043 241.544,135.422 242.359 M145.467 243.776 C 145.469 244.879,145.531 245.290,145.606 244.689 C 145.680 244.088,145.678 243.186,145.602 242.684 C 145.526 242.182,145.465 242.673,145.467 243.776 M94.108 243.758 C 94.217 244.041,94.440 244.190,94.605 244.089 C 94.769 243.987,94.904 244.046,94.904 244.220 C 94.904 244.393,95.424 244.782,96.059 245.084 C 96.695 245.385,97.305 245.778,97.416 245.957 C 97.526 246.136,97.779 246.282,97.976 246.282 C 98.174 246.282,97.953 245.982,97.486 245.614 C 97.019 245.246,96.472 244.946,96.271 244.946 C 96.071 244.946,95.906 244.828,95.906 244.684 C 95.906 244.539,95.457 244.156,94.908 243.832 C 94.065 243.334,93.941 243.322,94.108 243.758 M131.328 244.981 C 129.206 246.531,128.261 247.439,129.992 246.266 C 132.481 244.579,133.756 243.610,133.467 243.624 C 133.302 243.632,132.339 244.243,131.328 244.981 M97.668 244.946 C 98.136 245.313,98.627 245.614,98.761 245.614 C 98.895 245.614,98.622 245.313,98.154 244.946 C 97.687 244.578,97.195 244.277,97.062 244.277 C 96.928 244.277,97.201 244.578,97.668 244.946 M237.761 245.614 C 237.761 246.314,237.874 246.817,238.012 246.732 C 238.150 246.647,238.262 246.144,238.262 245.614 C 238.262 245.084,238.150 244.581,238.012 244.496 C 237.874 244.411,237.761 244.914,237.761 245.614 M269.116 246.784 C 269.117 248.070,269.177 248.556,269.250 247.862 C 269.322 247.169,269.321 246.116,269.247 245.523 C 269.173 244.930,269.114 245.497,269.116 246.784 M327.485 264.630 C 327.485 283.816,327.480 283.979,326.817 283.806 C 326.443 283.708,326.149 283.796,326.149 284.004 C 326.149 284.210,326.522 284.378,326.979 284.378 L 327.809 284.378 327.898 264.829 C 327.947 254.077,327.874 245.280,327.736 245.280 C 327.598 245.280,327.485 253.988,327.485 264.630 M101.408 248.001 C 102.442 248.945,103.693 250.036,104.188 250.423 L 105.088 251.128 104.314 250.037 C 103.888 249.437,103.114 248.725,102.593 248.456 C 102.072 248.187,101.348 247.588,100.984 247.124 C 100.620 246.661,100.143 246.282,99.925 246.282 C 99.707 246.282,100.374 247.056,101.408 248.001 M98.793 247.118 C 98.899 247.393,99.213 247.619,99.492 247.619 C 99.904 247.619,99.921 247.526,99.582 247.118 C 99.353 246.842,99.039 246.617,98.884 246.617 C 98.728 246.617,98.687 246.842,98.793 247.118 M127.130 248.371 L 126.149 249.457 127.235 248.475 C 128.247 247.561,128.474 247.285,128.216 247.285 C 128.159 247.285,127.670 247.774,127.130 248.371 M231.498 248.872 C 231.930 249.286,232.464 249.619,232.684 249.614 C 232.903 249.608,232.782 249.437,232.414 249.233 C 232.047 249.029,231.513 248.695,231.228 248.491 C 230.944 248.287,231.065 248.459,231.498 248.872 M101.253 249.123 C 101.482 249.398,101.820 249.624,102.003 249.624 C 102.190 249.624,102.154 249.402,101.921 249.123 C 101.693 248.847,101.355 248.622,101.171 248.622 C 100.985 248.622,101.021 248.843,101.253 249.123 M103.632 251.295 C 104.223 252.030,104.862 252.632,105.053 252.632 C 105.243 252.632,104.811 252.030,104.094 251.295 C 103.376 250.560,102.737 249.958,102.673 249.958 C 102.610 249.958,103.042 250.560,103.632 251.295 M287.886 251.963 L 286.884 252.218 287.950 252.258 C 288.537 252.280,289.109 252.147,289.223 251.963 C 289.452 251.593,289.340 251.593,287.886 251.963 M162.387 254.186 C 162.201 254.673,162.099 255.219,162.159 255.398 C 162.219 255.578,162.435 255.179,162.640 254.512 C 163.070 253.111,162.886 252.874,162.387 254.186 M197.160 253.464 C 197.160 253.692,199.206 254.707,199.359 254.554 C 199.431 254.482,198.966 254.172,198.325 253.866 C 197.684 253.561,197.160 253.380,197.160 253.464 M268.672 255.138 C 268.672 255.781,268.792 256.307,268.939 256.307 C 269.086 256.307,269.144 255.781,269.069 255.138 C 268.994 254.495,268.874 253.968,268.802 253.968 C 268.730 253.968,268.672 254.495,268.672 255.138 M273.434 254.676 C 272.836 254.849,272.348 255.064,272.348 255.154 C 272.348 255.396,274.134 254.932,274.503 254.593 C 274.867 254.260,274.879 254.259,273.434 254.676 M143.693 256.614 C 143.693 256.967,143.593 257.531,143.472 257.867 C 143.351 258.204,143.356 258.387,143.483 258.274 C 143.895 257.907,144.333 255.973,144.003 255.973 C 143.832 255.973,143.693 256.262,143.693 256.614 M161.147 259.983 C 161.147 260.627,161.216 260.890,161.300 260.568 C 161.384 260.246,161.384 259.720,161.300 259.398 C 161.216 259.077,161.147 259.340,161.147 259.983 M306.099 262.136 C 306.099 262.606,306.249 262.991,306.433 262.991 C 306.617 262.991,306.767 262.699,306.767 262.342 C 306.767 261.985,306.617 261.601,306.433 261.487 C 306.243 261.370,306.099 261.651,306.099 262.136 M141.365 263.302 C 141.175 263.658,140.860 264.372,140.664 264.890 C 140.140 266.279,140.875 265.424,141.508 263.910 C 142.055 262.598,141.960 262.191,141.365 263.302 M134.182 273.674 L 132.189 275.856 134.333 273.780 C 135.512 272.638,136.409 271.656,136.325 271.598 C 136.242 271.539,135.277 272.474,134.182 273.674 M170.760 272.561 C 170.760 272.787,174.453 274.447,174.608 274.292 C 174.680 274.220,173.843 273.766,172.749 273.283 C 171.655 272.799,170.760 272.475,170.760 272.561 M94.236 273.120 C 94.236 273.178,94.724 273.667,95.322 274.206 L 96.408 275.188 95.426 274.102 C 94.511 273.090,94.236 272.862,94.236 273.120 M299.916 274.754 L 298.246 276.491 299.672 275.389 C 300.833 274.492,302.085 273.014,301.683 273.016 C 301.630 273.017,300.835 273.799,299.916 274.754 M130.162 277.199 C 129.429 277.839,128.992 278.363,129.192 278.363 C 129.391 278.363,129.826 278.062,130.159 277.694 C 130.491 277.327,130.950 277.026,131.177 277.026 C 131.405 277.026,131.678 276.800,131.783 276.525 C 132.084 275.740,131.607 275.939,130.162 277.199 M179.494 276.514 C 179.774 276.795,182.122 277.708,182.122 277.536 C 182.122 277.444,181.577 277.141,180.912 276.863 C 179.679 276.348,179.213 276.233,179.494 276.514 M183.094 278.003 C 183.561 278.298,182.120 278.547,178.446 278.808 C 177.619 278.866,178.897 278.938,181.287 278.967 C 184.035 279.001,185.453 278.908,185.145 278.714 C 184.879 278.545,184.557 278.470,184.431 278.548 C 184.306 278.626,184.017 278.465,183.790 278.192 C 183.563 277.918,183.207 277.697,183.000 277.699 C 182.789 277.702,182.830 277.835,183.094 278.003 M157.393 279.031 C 156.178 279.220,156.485 279.274,159.001 279.315 C 161.001 279.347,162.038 279.246,161.905 279.031 C 161.679 278.665,159.746 278.665,157.393 279.031 M126.696 279.728 C 126.263 280.080,126.046 280.368,126.215 280.368 C 126.662 280.368,127.848 279.449,127.652 279.254 C 127.560 279.163,127.130 279.376,126.696 279.728 M293.567 279.437 C 292.838 279.858,291.704 280.901,292.237 280.661 C 293.620 280.038,294.403 279.550,294.403 279.311 C 294.403 278.963,294.384 278.965,293.567 279.437 M143.602 279.606 C 144.195 279.680,145.247 279.681,145.941 279.609 C 146.634 279.537,146.149 279.476,144.862 279.475 C 143.576 279.473,143.008 279.532,143.602 279.606 M131.495 280.033 L 129.825 280.263 131.328 280.282 C 132.155 280.293,133.659 280.187,134.670 280.047 L 136.508 279.793 134.837 279.799 C 133.918 279.802,132.414 279.907,131.495 280.033 M294.737 281.370 C 294.737 281.554,295.272 281.704,295.926 281.704 C 296.634 281.704,297.032 281.569,296.909 281.370 C 296.795 281.186,296.260 281.036,295.720 281.036 C 295.179 281.036,294.737 281.186,294.737 281.370 M97.911 281.704 C 97.911 281.888,98.287 282.038,98.747 282.038 C 99.206 282.038,99.582 281.888,99.582 281.704 C 99.582 281.520,99.206 281.370,98.747 281.370 C 98.287 281.370,97.911 281.520,97.911 281.704 M300.752 281.704 C 300.752 281.888,301.128 282.038,301.587 282.038 C 302.047 282.038,302.423 281.888,302.423 281.704 C 302.423 281.520,302.047 281.370,301.587 281.370 C 301.128 281.370,300.752 281.520,300.752 281.704 M267.168 282.523 C 267.719 282.774,268.233 282.918,268.310 282.843 C 268.531 282.627,268.243 282.481,267.168 282.266 L 266.165 282.066 267.168 282.523 M83.375 283.041 L 82.373 283.296 83.375 283.312 C 83.926 283.321,84.678 283.199,85.046 283.041 L 85.714 282.754 85.046 282.770 C 84.678 282.779,83.926 282.901,83.375 283.041 M315.121 283.041 C 315.397 283.219,316.074 283.352,316.625 283.337 C 317.607 283.309,317.611 283.303,316.792 283.041 C 315.514 282.632,314.488 282.632,315.121 283.041 M79.365 283.375 C 78.802 283.617,78.864 283.666,79.763 283.686 C 80.350 283.699,80.922 283.559,81.036 283.375 C 81.284 282.974,80.298 282.974,79.365 283.375 M319.131 283.375 C 319.407 283.553,320.008 283.691,320.468 283.681 C 321.233 283.664,321.247 283.638,320.635 283.375 C 319.646 282.950,318.473 282.950,319.131 283.375 M76.190 283.709 C 75.798 283.963,75.885 284.034,76.588 284.038 C 77.083 284.041,77.581 283.893,77.694 283.709 C 77.958 283.283,76.851 283.283,76.190 283.709 M322.640 283.709 C 322.754 283.893,323.326 284.028,323.913 284.010 C 324.931 283.978,324.942 283.965,324.144 283.709 C 322.944 283.325,322.402 283.325,322.640 283.709 M72.849 284.043 C 72.458 284.296,72.550 284.369,73.266 284.372 C 73.772 284.375,74.185 284.227,74.185 284.043 C 74.185 283.621,73.503 283.621,72.849 284.043 M69.841 284.378 C 69.841 284.561,70.067 284.712,70.343 284.712 C 70.618 284.712,70.844 284.561,70.844 284.378 C 70.844 284.194,70.618 284.043,70.343 284.043 C 70.067 284.043,69.841 284.194,69.841 284.378 M61.487 285.714 C 61.041 286.002,61.041 286.038,61.487 286.038 C 61.763 286.038,62.214 285.892,62.490 285.714 C 62.935 285.426,62.935 285.390,62.490 285.390 C 62.214 285.390,61.763 285.536,61.487 285.714 M59.148 286.048 C 58.702 286.336,58.702 286.372,59.148 286.372 C 59.424 286.372,59.875 286.227,60.150 286.048 C 60.596 285.761,60.596 285.725,60.150 285.725 C 59.875 285.725,59.424 285.870,59.148 286.048 M57.143 286.383 C 56.738 286.645,56.785 286.708,57.393 286.712 C 57.807 286.714,58.145 286.566,58.145 286.383 C 58.145 285.964,57.791 285.964,57.143 286.383 M210.660 288.298 C 210.959 288.598,213.629 289.406,213.789 289.246 C 213.894 289.142,210.963 288.053,210.578 288.053 C 210.488 288.053,210.525 288.164,210.660 288.298 M47.534 289.002 C 46.752 289.320,45.875 289.951,45.586 290.404 L 45.059 291.228 45.754 290.439 C 46.137 290.005,46.449 289.745,46.449 289.861 C 46.449 289.977,47.051 289.765,47.786 289.390 C 49.843 288.341,49.701 288.122,47.534 289.002 M350.877 288.577 C 350.877 288.763,352.846 289.652,353.318 289.679 C 353.466 289.688,353.891 290.040,354.264 290.462 L 354.941 291.228 354.415 290.405 C 353.957 289.688,350.877 288.097,350.877 288.577 M269.083 291.061 C 269.083 291.704,269.152 291.967,269.236 291.646 C 269.320 291.324,269.320 290.798,269.236 290.476 C 269.152 290.155,269.083 290.418,269.083 291.061 M219.549 291.562 C 219.836 291.909,219.849 292.063,219.590 292.063 C 219.383 292.063,219.215 292.232,219.215 292.439 C 219.215 292.705,219.355 292.698,219.696 292.414 C 220.204 291.993,220.049 291.061,219.472 291.061 C 219.277 291.061,219.309 291.273,219.549 291.562 M45.113 291.975 C 45.113 292.138,45.564 292.606,46.115 293.013 C 46.667 293.421,47.109 293.637,47.099 293.494 C 47.073 293.118,45.113 291.620,45.113 291.975 M353.763 292.610 C 352.517 293.682,352.750 293.913,354.039 292.884 C 354.583 292.449,354.959 292.024,354.874 291.940 C 354.789 291.855,354.289 292.157,353.763 292.610 M48.120 293.994 C 48.120 294.176,48.496 294.397,48.956 294.484 C 49.415 294.572,49.791 294.515,49.791 294.356 C 49.791 294.198,49.653 294.069,49.484 294.069 C 49.316 294.069,48.940 293.977,48.649 293.866 C 48.358 293.754,48.120 293.812,48.120 293.994 M199.347 294.486 C 199.472 294.900,199.711 295.385,199.880 295.565 C 200.048 295.744,200.016 295.406,199.809 294.813 C 199.386 293.599,198.995 293.323,199.347 294.486 M215.650 294.675 C 213.708 295.926,213.414 296.336,215.140 295.385 C 215.932 294.949,216.740 294.399,216.935 294.163 C 217.426 293.573,217.254 293.641,215.650 294.675 M350.794 293.965 C 349.884 294.202,350.106 294.664,351.044 294.484 C 351.504 294.397,351.880 294.192,351.880 294.030 C 351.880 293.721,351.755 293.713,350.794 293.965 M50.292 294.670 C 50.476 294.843,51.078 295.090,51.629 295.219 C 52.261 295.366,52.508 295.336,52.297 295.138 C 52.114 294.965,51.512 294.718,50.961 294.589 C 50.329 294.442,50.082 294.472,50.292 294.670 M60.819 297.076 C 60.819 297.260,61.044 297.410,61.320 297.410 C 61.596 297.410,61.821 297.260,61.821 297.076 C 61.821 296.892,61.596 296.742,61.320 296.742 C 61.044 296.742,60.819 296.892,60.819 297.076 M338.179 297.076 C 338.179 297.499,338.862 297.499,339.515 297.076 C 339.906 296.824,339.814 296.751,339.098 296.747 C 338.592 296.744,338.179 296.892,338.179 297.076 M62.991 297.410 C 63.911 297.805,64.238 297.805,63.993 297.410 C 63.880 297.226,63.457 297.087,63.055 297.100 C 62.349 297.122,62.346 297.133,62.991 297.410 M200.971 297.693 C 201.625 298.432,205.905 298.797,206.306 298.148 C 206.397 298.002,205.503 297.944,204.322 298.020 C 202.664 298.125,201.963 298.021,201.254 297.564 L 200.334 296.973 200.971 297.693 M336.007 297.410 C 335.762 297.805,336.089 297.805,337.009 297.410 C 337.654 297.133,337.651 297.122,336.945 297.100 C 336.543 297.087,336.120 297.226,336.007 297.410 M65.664 297.744 C 66.593 298.143,67.247 298.143,67.001 297.744 C 66.887 297.561,66.390 297.421,65.895 297.434 C 65.092 297.455,65.067 297.488,65.664 297.744 M333.333 297.744 C 333.070 298.170,333.845 298.170,334.503 297.744 C 334.910 297.481,334.867 297.419,334.272 297.415 C 333.869 297.412,333.447 297.561,333.333 297.744 M330.660 298.079 C 330.416 298.474,330.743 298.474,331.662 298.079 C 332.307 297.802,332.305 297.790,331.599 297.768 C 331.196 297.755,330.774 297.895,330.660 298.079 M78.530 299.415 C 78.530 299.599,78.830 299.749,79.198 299.749 C 79.566 299.749,79.866 299.599,79.866 299.415 C 79.866 299.231,79.566 299.081,79.198 299.081 C 78.830 299.081,78.530 299.231,78.530 299.415 M320.468 299.415 C 320.468 299.599,320.693 299.749,320.969 299.749 C 321.245 299.749,321.470 299.599,321.470 299.415 C 321.470 299.231,321.245 299.081,320.969 299.081 C 320.693 299.081,320.468 299.231,320.468 299.415 M82.373 299.749 C 82.486 299.933,82.871 300.084,83.228 300.084 C 83.584 300.084,83.876 299.933,83.876 299.749 C 83.876 299.566,83.492 299.415,83.021 299.415 C 82.536 299.415,82.255 299.560,82.373 299.749 M316.458 299.749 C 316.458 299.933,316.750 300.084,317.106 300.084 C 317.463 300.084,317.848 299.933,317.962 299.749 C 318.079 299.560,317.798 299.415,317.313 299.415 C 316.843 299.415,316.458 299.566,316.458 299.749 M86.216 300.084 C 86.878 300.512,88.318 300.512,88.053 300.084 C 87.940 299.900,87.367 299.752,86.781 299.754 C 85.969 299.758,85.834 299.837,86.216 300.084 M312.281 300.084 C 312.016 300.512,313.456 300.512,314.119 300.084 C 314.500 299.837,314.365 299.758,313.554 299.754 C 312.967 299.752,312.394 299.900,312.281 300.084 M89.891 300.418 C 91.158 300.823,92.858 300.823,92.231 300.418 C 91.955 300.240,91.128 300.106,90.393 300.122 C 89.233 300.146,89.167 300.186,89.891 300.418 M307.769 300.418 C 307.142 300.823,308.842 300.823,310.109 300.418 C 310.833 300.186,310.767 300.146,309.607 300.122 C 308.872 300.106,308.045 300.240,307.769 300.418 M95.071 300.752 C 96.572 301.134,97.965 301.134,97.076 300.752 C 96.708 300.594,95.881 300.472,95.238 300.481 L 94.069 300.497 95.071 300.752 M303.258 300.752 C 302.369 301.134,303.762 301.134,305.263 300.752 L 306.266 300.497 305.096 300.481 C 304.453 300.472,303.626 300.594,303.258 300.752 M100.251 301.086 C 100.710 301.233,101.537 301.351,102.089 301.347 L 103.091 301.341 102.089 301.086 C 101.537 300.946,100.710 300.828,100.251 300.825 L 99.415 300.818 100.251 301.086 M297.911 301.086 L 296.909 301.341 297.911 301.347 C 298.463 301.351,299.290 301.233,299.749 301.086 L 300.585 300.818 299.749 300.825 C 299.290 300.828,298.463 300.946,297.911 301.086 M107.523 301.657 C 107.938 301.736,108.540 301.733,108.859 301.650 C 109.179 301.566,108.839 301.501,108.104 301.504 C 107.368 301.508,107.107 301.577,107.523 301.657 M291.650 301.657 C 292.065 301.736,292.667 301.733,292.986 301.650 C 293.306 301.566,292.966 301.501,292.231 301.504 C 291.495 301.508,291.234 301.577,291.650 301.657 M112.949 302.089 C 112.949 302.272,113.466 302.423,114.099 302.423 C 114.731 302.423,115.342 302.272,115.455 302.089 C 115.580 301.887,115.125 301.754,114.305 301.754 C 113.559 301.754,112.949 301.905,112.949 302.089 M284.545 302.089 C 284.658 302.272,285.269 302.423,285.901 302.423 C 286.534 302.423,287.051 302.272,287.051 302.089 C 287.051 301.905,286.441 301.754,285.695 301.754 C 284.875 301.754,284.420 301.887,284.545 302.089 M120.635 302.423 C 121.307 302.857,123.744 302.857,123.475 302.423 C 123.362 302.239,122.563 302.091,121.701 302.094 C 120.566 302.097,120.272 302.188,120.635 302.423 M277.026 302.423 C 277.026 302.607,277.619 302.757,278.343 302.757 C 279.067 302.757,279.753 302.607,279.866 302.423 C 279.992 302.219,279.480 302.089,278.549 302.089 C 277.711 302.089,277.026 302.239,277.026 302.423 M128.154 302.757 C 129.112 303.169,132.084 303.169,131.830 302.757 C 131.716 302.573,130.692 302.433,129.554 302.446 C 128.089 302.463,127.680 302.553,128.154 302.757 M268.170 302.757 C 267.924 303.155,270.770 303.155,272.013 302.757 C 272.621 302.562,272.240 302.480,270.613 302.456 C 269.383 302.438,268.284 302.573,268.170 302.757 M137.510 303.110 C 139.457 303.513,142.320 303.500,141.688 303.091 C 141.412 302.913,140.058 302.782,138.680 302.800 C 136.458 302.830,136.326 302.865,137.510 303.110 M258.312 303.091 C 257.680 303.500,260.543 303.513,262.490 303.110 C 263.674 302.865,263.542 302.830,261.320 302.800 C 259.942 302.782,258.588 302.913,258.312 303.091 M148.705 303.437 C 151.759 303.780,155.137 303.773,154.052 303.425 C 153.592 303.278,151.713 303.166,149.875 303.175 C 146.667 303.192,146.620 303.203,148.705 303.437 M245.948 303.425 C 244.863 303.773,248.241 303.780,251.295 303.437 C 253.380 303.203,253.333 303.192,250.125 303.175 C 248.287 303.166,246.408 303.278,245.948 303.425 M164.578 303.777 C 166.232 303.912,169.390 304.014,171.596 304.002 L 175.606 303.981 172.097 303.744 C 170.167 303.614,167.009 303.513,165.079 303.519 L 161.571 303.531 164.578 303.777 M227.736 303.759 L 224.394 303.964 228.404 303.993 C 230.610 304.010,233.768 303.912,235.422 303.777 L 238.429 303.531 234.754 303.543 C 232.732 303.549,229.574 303.647,227.736 303.759 " stroke="none" fill="#9897a3" fill-rule="evenodd"></path></g></svg>